<?xml version="1.0" standalone="no"?>
<!DOCTYPE svg PUBLIC "-//W3C//DTD SVG 1.1//EN" "http://www.w3.org/Graphics/SVG/1.1/DTD/svg11.dtd" >
<svg xmlns="http://www.w3.org/2000/svg" xmlns:xlink="http://www.w3.org/1999/xlink" version="1.1">
<metadata>
Created by FontForge 20170924 at Tue Aug  4 16:02:14 2020
 By www-data
Copyright (c) 2020 by Vlad Cristea. All rights reserved.
</metadata>
<defs>
<font id="Baigo-Regular" horiz-adv-x="600" >
  <font-face 
    font-family="Baigo"
    font-weight="400"
    font-stretch="normal"
    units-per-em="1000"
    panose-1="0 0 5 0 0 0 0 0 0 0"
    ascent="800"
    descent="-200"
    x-height="700"
    cap-height="700"
    bbox="-48 -334 1044 939"
    underline-thickness="50"
    underline-position="-100"
    unicode-range="U+0020-20AC"
  />
<missing-glyph 
 />
    <glyph glyph-name=".notdef" 
 />
    <glyph glyph-name="space" unicode=" " horiz-adv-x="300" 
 />
    <glyph glyph-name="A" unicode="A" horiz-adv-x="650" 
d="M169 700h311l160 -700h-270l-14 167h-62l-14 -167h-270zM349 257l-19 232h-10l-19 -232h48z" />
    <glyph glyph-name="Acircumflex" unicode="&#xc2;" horiz-adv-x="650" 
d="M169 700h311l160 -700h-270l-14 167h-62l-14 -167h-270zM349 257l-19 232h-10l-19 -232h48zM330 850l-36 86h134l109 -186h-175zM222 936h135l-27 -86h-10l-31 -100h-176z" />
    <glyph glyph-name="Adieresis" unicode="&#xc4;" horiz-adv-x="650" 
d="M169 700h311l160 -700h-270l-14 167h-62l-14 -167h-270zM349 257l-19 232h-10l-19 -232h48zM358.5 774.5q-28.5 26.5 -28.5 68.5t28.5 68.5t78.5 26.5t79 -26.5t29 -68.5t-29 -68.5t-79 -26.5v0q-50 0 -78.5 26.5zM123.5 774.5q-28.5 26.5 -28.5 68.5t28.5 68.5
t78.5 26.5t79 -26.5t29 -68.5t-29 -68.5t-79 -26.5v0q-50 0 -78.5 26.5z" />
    <glyph glyph-name="Agrave" unicode="&#xc0;" horiz-adv-x="650" 
d="M169 700h311l160 -700h-270l-14 167h-62l-14 -167h-270zM349 257l-19 232h-10l-19 -232h48zM188 936h194l40 -186h-156z" />
    <glyph glyph-name="Aring" unicode="&#xc5;" horiz-adv-x="650" 
d="M189.5 676q-49.5 43 -49.5 110t49.5 110t135.5 43t135.5 -43t49.5 -110t-49.5 -110t-135.5 -43v0q-86 0 -135.5 43zM388 753q23 13 23 33t-23 33t-63 13t-63.5 -13t-23.5 -33t23.5 -33t63.5 -13v0q40 0 63 13zM480 700l160 -700h-270l-14 167h-62l-14 -167h-270l159 700
h311zM330 489h-10l-19 -232h48z" />
    <glyph glyph-name="Atilde" unicode="&#xc3;" horiz-adv-x="650" 
d="M169 700h311l160 -700h-270l-14 167h-62l-14 -167h-270zM349 257l-19 232h-10l-19 -232h48zM355.5 756.5q-19.5 8.5 -43.5 23.5q-33 21 -49 21q-17 0 -26.5 -15t-12.5 -36h-90q0 91 33 139.5t87 48.5q21 0 39.5 -8t44.5 -24q14 -8 26.5 -14.5t21.5 -6.5q17 0 27 15t12 36
h91q0 -91 -33 -139.5t-87 -48.5v0q-21 0 -40.5 8.5z" />
    <glyph glyph-name="AE" unicode="&#xc6;" horiz-adv-x="875" 
d="M219 700h180l-20 -211h-10l-89 -489h-270zM250 257h129v-90h-129v90zM639 100h226l-5 -100h-221v100zM379 700h260v-700h-260v700zM639 442h120v-100h-120v100zM639 700h200l-4 -100h-196v100z" />
    <glyph glyph-name="B" unicode="B" horiz-adv-x="665" 
d="M50 10v680q142 17 260 17q76 0 142 -19t106 -55.5t40 -86.5q0 -43 -25.5 -76.5t-72.5 -54.5q73 -27 114 -77.5t41 -119.5t-47.5 -120.5t-126 -78t-171.5 -26.5v0q-118 0 -260 17zM351.5 111.5q14.5 17.5 24 49.5t9.5 75q0 42 -9.5 74t-24 49.5t-26.5 17.5
q-10 0 -12.5 -30.5t-2.5 -110.5q0 -81 2.5 -111.5t12.5 -30.5v0q12 0 26.5 17.5zM343.5 452q11.5 10 19.5 29t8 43q0 25 -8 44t-19.5 29t-21.5 10q-8 0 -10 -18t-2 -65q0 -46 2 -64t10 -18v0q10 0 21.5 10z" />
    <glyph glyph-name="C" unicode="C" horiz-adv-x="555" 
d="M210 31q-82 43 -131 125t-49 194t49 194t131 125t180 43q76 0 135 -25l-13 -84q-40 7 -74 7q-42 0 -75.5 -31t-53 -90t-19.5 -139t19.5 -139t53 -90t75.5 -31q34 0 74 7l13 -84q-59 -25 -135 -25v0q-98 0 -180 43z" />
    <glyph glyph-name="Ccedilla" unicode="&#xc7;" 
d="M175 -328l28 111q69 8 107 24t38 35q0 17 -30.5 32t-86.5 24l19 74q80 -4 125 -46t45 -107q0 -67 -49.5 -110t-135.5 -43v0q-33 0 -60 6zM250 -28l15 56l87 -28l-19 -50l-19 -51zM210 31q-82 43 -131 125t-49 194t49 194t131 125t180 43q76 0 135 -25l-13 -84
q-40 7 -74 7q-42 0 -75.5 -31t-53 -90t-19.5 -139t19.5 -139t53 -90t75.5 -31q34 0 74 7l13 -84q-59 -25 -135 -25v0v0q-98 0 -180 43z" />
    <glyph glyph-name="D" unicode="D" horiz-adv-x="690" 
d="M50 10v680q142 17 260 17q94 0 174 -42.5t128 -123.5t48 -191t-48 -191t-128 -123.5t-174 -42.5v0q-118 0 -260 17zM351.5 125.5q14.5 31.5 24 90t9.5 135.5q0 76 -9.5 134.5t-24 90t-26.5 31.5q-10 0 -12.5 -55t-2.5 -201t2.5 -201.5t12.5 -55.5v0q12 0 26.5 31.5z" />
    <glyph glyph-name="E" unicode="E" horiz-adv-x="546" 
d="M50 700h460l-5 -100h-195v-158h120v-100h-120v-242h226l-5 -100h-481v700z" />
    <glyph glyph-name="Eacute" unicode="&#xc9;" 
d="M50 700h460l-5 -100h-195v-158h120v-100h-120v-242h226l-5 -100h-481v700zM205 936h195l-78 -186h-156z" />
    <glyph glyph-name="Ecircumflex" unicode="&#xca;" 
d="M50 700h460l-5 -100h-195v-158h120v-100h-120v-242h226l-5 -100h-481v700zM288 850l-36 86h134l109 -186h-175zM180 936h135l-27 -86h-10l-31 -100h-176z" />
    <glyph glyph-name="Edieresis" unicode="&#xcb;" 
d="M50 700h460l-5 -100h-195v-158h120v-100h-120v-242h226l-5 -100h-481v700zM306.5 774.5q-28.5 26.5 -28.5 68.5t28.5 68.5t78.5 26.5t79 -26.5t29 -68.5t-29 -68.5t-79 -26.5v0q-50 0 -78.5 26.5zM71.5 774.5q-28.5 26.5 -28.5 68.5t28.5 68.5t78.5 26.5t79 -26.5
t29 -68.5t-29 -68.5t-79 -26.5v0q-50 0 -78.5 26.5z" />
    <glyph glyph-name="Egrave" unicode="&#xc8;" 
d="M50 700h460l-5 -100h-195v-158h120v-100h-120v-242h226l-5 -100h-481v700zM166 936h194l40 -186h-156z" />
    <glyph glyph-name="F" unicode="F" horiz-adv-x="539" 
d="M50 700h260v-1h209l-6 -100h-203v-177h129v-100h-129v-322h-260v700z" />
    <glyph glyph-name="G" unicode="G" horiz-adv-x="697" 
d="M210 31q-82 43 -131 125t-49 194t49 194t131 125t180 43q76 0 135 -25l-13 -84q-40 7 -74 7q-42 0 -75.5 -31t-53 -90t-19.5 -139q0 -102 31 -168.5t81 -85.5v246h-54v100h314v-335q-34 -50 -104 -84.5t-168 -34.5v0q-98 0 -180 43z" />
    <glyph glyph-name="H" unicode="H" horiz-adv-x="693" 
d="M50 700h260v-258h73v258h260v-700h-260v342h-73v-342h-260v700z" />
    <glyph glyph-name="I" unicode="I" horiz-adv-x="360" 
d="M50 700h260v-700h-260v700z" />
    <glyph glyph-name="Iacute" unicode="&#xcd;" horiz-adv-x="358" 
d="M50 700h260v-700h-260v700zM113 936h194l-78 -186h-156z" />
    <glyph glyph-name="Icircumflex" unicode="&#xce;" horiz-adv-x="359" 
d="M50 700h260v-700h-260v700zM77 936h134l-27 -86h-10l-31 -100h-176zM184 850l-36 86h134l110 -186h-176z" />
    <glyph glyph-name="Idieresis" unicode="&#xcf;" horiz-adv-x="360" 
d="M50 700h260v-700h-260v700zM-19.5 774.5q-28.5 26.5 -28.5 68.5t28.5 68.5t78.5 26.5t79 -26.5t29 -68.5t-29 -68.5t-79 -26.5v0q-50 0 -78.5 26.5zM215.5 774.5q-28.5 26.5 -28.5 68.5t28.5 68.5t78.5 26.5t79 -26.5t29 -68.5t-29 -68.5t-79 -26.5v0q-50 0 -78.5 26.5z
" />
    <glyph glyph-name="Igrave" unicode="&#xcc;" horiz-adv-x="360" 
d="M50 700h260v-700h-260v700zM33 936h194l40 -186h-156z" />
    <glyph glyph-name="J" unicode="J" horiz-adv-x="491" 
d="M69.5 -7.5q-39.5 4.5 -69.5 12.5l9 100q50 -12 84 -12q42 0 65 17.5t33 59.5t10 118v412h260v-412q0 -164 -82 -232t-238 -68v0q-32 0 -71.5 4.5z" />
    <glyph glyph-name="K" unicode="K" horiz-adv-x="710" 
d="M50 700h260v-229h10l50 229h270l-140 -302l190 -395h-270l-100 257h-10v-260h-260v700z" />
    <glyph glyph-name="L" unicode="L" horiz-adv-x="520" 
d="M50 700h260v-600h200l-5 -100h-455v700z" />
    <glyph glyph-name="M" unicode="M" horiz-adv-x="769" 
d="M50 700h230l105 -420l104 420h230v-700h-260l5 305h-10l-24 -205h-90l-25 205h-10l5 -305h-260v700z" />
    <glyph glyph-name="N" unicode="N" horiz-adv-x="693" 
d="M50 700h230l99 -367h10v-1l-6 368h260v-700h-230l-98 315h-10v1l5 -316h-260v700z" />
    <glyph glyph-name="Ntilde" unicode="&#xd1;" 
d="M50 700h230l99 -367h10v-1l-6 368h260v-700h-230l-98 315h-10v1l5 -316h-260v700zM367.5 756.5q-19.5 8.5 -43.5 23.5q-33 21 -49 21q-17 0 -26.5 -15t-12.5 -36h-90q0 91 33 139.5t87 48.5q21 0 39.5 -8t44.5 -24q14 -8 26.5 -14.5t21.5 -6.5q17 0 27 15t12 36h91
q0 -91 -33 -139.5t-87 -48.5v0q-21 0 -40.5 8.5z" />
    <glyph glyph-name="O" unicode="O" horiz-adv-x="700" 
d="M185.5 32q-72.5 43 -114 124.5t-41.5 194.5t41.5 194.5t114 124.5t164.5 43t164.5 -43t114 -124.5t41.5 -194.5t-41.5 -194.5t-114 -124.5t-164.5 -43v0q-92 0 -164.5 43zM381.5 163.5q13.5 69.5 13.5 187.5t-13.5 187.5t-31.5 69.5t-31.5 -69.5t-13.5 -187.5
t13.5 -187.5t31.5 -69.5v0q18 0 31.5 69.5z" />
    <glyph glyph-name="Oacute" unicode="&#xd3;" 
d="M185.5 32q-72.5 43 -114 124.5t-41.5 194.5t41.5 194.5t114 124.5t164.5 43t164.5 -43t114 -124.5t41.5 -194.5t-41.5 -194.5t-114 -124.5t-164.5 -43v0q-92 0 -164.5 43zM381.5 163.5q13.5 69.5 13.5 187.5t-13.5 187.5t-31.5 69.5t-31.5 -69.5t-13.5 -187.5
t13.5 -187.5t31.5 -69.5v0q18 0 31.5 69.5zM292 936h195l-78 -186h-156z" />
    <glyph glyph-name="Ocircumflex" unicode="&#xd4;" 
d="M185.5 32q-72.5 43 -114 124.5t-41.5 194.5t41.5 194.5t114 124.5t164.5 43t164.5 -43t114 -124.5t41.5 -194.5t-41.5 -194.5t-114 -124.5t-164.5 -43v0q-92 0 -164.5 43zM381.5 163.5q13.5 69.5 13.5 187.5t-13.5 187.5t-31.5 69.5t-31.5 -69.5t-13.5 -187.5
t13.5 -187.5t31.5 -69.5v0q18 0 31.5 69.5zM355 850l-36 86h134l109 -186h-175zM247 936h135l-27 -86h-10l-31 -100h-176z" />
    <glyph glyph-name="Odieresis" unicode="&#xd6;" 
d="M185.5 32q-72.5 43 -114 124.5t-41.5 194.5t41.5 194.5t114 124.5t164.5 43t164.5 -43t114 -124.5t41.5 -194.5t-41.5 -194.5t-114 -124.5t-164.5 -43v0q-92 0 -164.5 43zM381.5 163.5q13.5 69.5 13.5 187.5t-13.5 187.5t-31.5 69.5t-31.5 -69.5t-13.5 -187.5
t13.5 -187.5t31.5 -69.5v0q18 0 31.5 69.5zM373.5 774.5q-28.5 26.5 -28.5 68.5t28.5 68.5t78.5 26.5t79 -26.5t29 -68.5t-29 -68.5t-79 -26.5v0q-50 0 -78.5 26.5zM138.5 774.5q-28.5 26.5 -28.5 68.5t28.5 68.5t78.5 26.5t79 -26.5t29 -68.5t-29 -68.5t-79 -26.5v0
q-50 0 -78.5 26.5z" />
    <glyph glyph-name="Ograve" unicode="&#xd2;" 
d="M185.5 32q-72.5 43 -114 124.5t-41.5 194.5t41.5 194.5t114 124.5t164.5 43t164.5 -43t114 -124.5t41.5 -194.5t-41.5 -194.5t-114 -124.5t-164.5 -43v0q-92 0 -164.5 43zM381.5 163.5q13.5 69.5 13.5 187.5t-13.5 187.5t-31.5 69.5t-31.5 -69.5t-13.5 -187.5
t13.5 -187.5t31.5 -69.5v0q18 0 31.5 69.5zM213 936h194l40 -186h-156z" />
    <glyph glyph-name="Oslash" unicode="&#xd8;" horiz-adv-x="700" 
d="M185.5 31q-72.5 43 -114 124.5t-41.5 194.5t41.5 194.5t114 124.5t164.5 43t164.5 -43t114 -124.5t41.5 -194.5t-41.5 -194.5t-114 -124.5t-164.5 -43v0q-92 0 -164.5 43zM478 741h80l-336 -782h-80zM381.5 162.5q13.5 69.5 13.5 187.5t-13.5 187.5t-31.5 69.5
t-31.5 -69.5t-13.5 -187.5t13.5 -187.5t31.5 -69.5v0q18 0 31.5 69.5z" />
    <glyph glyph-name="Otilde" unicode="&#xd5;" 
d="M185.5 32q-72.5 43 -114 124.5t-41.5 194.5t41.5 194.5t114 124.5t164.5 43t164.5 -43t114 -124.5t41.5 -194.5t-41.5 -194.5t-114 -124.5t-164.5 -43v0q-92 0 -164.5 43zM381.5 163.5q13.5 69.5 13.5 187.5t-13.5 187.5t-31.5 69.5t-31.5 -69.5t-13.5 -187.5
t13.5 -187.5t31.5 -69.5v0q18 0 31.5 69.5zM380.5 756.5q-19.5 8.5 -43.5 23.5q-33 21 -49 21q-17 0 -26.5 -15t-12.5 -36h-90q0 91 33 139.5t87 48.5q21 0 39.5 -8t44.5 -24q14 -8 26.5 -14.5t21.5 -6.5q17 0 27 15t12 36h91q0 -91 -33 -139.5t-87 -48.5v0q-21 0 -40.5 8.5
z" />
    <glyph glyph-name="OE" unicode="&#x152;" horiz-adv-x="1020" 
d="M185.5 43q-72.5 43 -114 124.5t-41.5 194.5t41.5 194.5t114 124.5t164.5 43t164.5 -43t114 -124.5t41.5 -194.5t-41.5 -194.5t-114 -124.5t-164.5 -43v0q-92 0 -164.5 43zM381.5 174.5q13.5 69.5 13.5 187.5t-13.5 187.5t-31.5 69.5t-31.5 -69.5t-13.5 -187.5
t13.5 -187.5t31.5 -69.5v0q18 0 31.5 69.5zM784 112h226l-5 -100h-221v100zM524 712h260v-700h-260v700zM784 454h120v-100h-120v100zM784 712h200l-5 -100h-195v100z" />
    <glyph glyph-name="P" unicode="P" horiz-adv-x="685" 
d="M310 707q93 0 171.5 -32.5t126 -94.5t47.5 -146t-47.5 -146.5t-126 -95t-171.5 -32.5v-160h-260v690q142 17 260 17zM351.5 282.5q14.5 21.5 24 61t9.5 90.5t-10 90t-24 60.5t-26 21.5q-10 0 -12.5 -37t-2.5 -135t2.5 -135.5t12.5 -37.5v0q12 0 26.5 21.5z" />
    <glyph glyph-name="Q" unicode="Q" horiz-adv-x="700" 
d="M219 -18.5q-130 95.5 -170 230.5v-1v1q-16 50 -19 118v2v18v0q0 113 41.5 194.5t114 124.5t164.5 43t164.5 -43t114 -124.5t41.5 -194.5q0 -145 -67 -237.5t-178 -116.5v0v0v-10h195l-5 -100v0q-266 0 -396 95.5zM381.5 162.5q13.5 69.5 13.5 187.5t-13.5 187.5
t-31.5 69.5t-31.5 -69.5t-13.5 -187.5t13.5 -187.5t31.5 -69.5v0q18 0 31.5 69.5z" />
    <glyph glyph-name="R" unicode="R" horiz-adv-x="697" 
d="M320 206v0h-10v-146v-60h-260v690q142 17 260 17v0v0v0v0q93 0 171.5 -29.5t126 -86.5t47.5 -134q0 -70 -38.5 -123t-105.5 -85l176 -249h-270l-97 206v0zM351.5 326.5q14.5 18.5 24 52.5t9.5 78t-9.5 78t-24 52.5t-26.5 18.5q-10 0 -12.5 -31.5t-2.5 -107.5v-21
q0 -76 2.5 -107t12.5 -31v0q12 0 26.5 18.5z" />
    <glyph glyph-name="S" unicode="S" horiz-adv-x="607" 
d="M138.5 2q-80.5 14 -118.5 30l14 84q52 -14 97 -14q63 0 96.5 25.5t33.5 61.5q0 33 -21.5 62.5t-64.5 71.5q-55 53 -84 95t-29 97q0 43 23 87.5t86 77t173 32.5q46 0 100 -11t101 -26l-14 -84q-41 12 -70 12q-49 0 -72.5 -26t-23.5 -56q0 -32 23 -61.5t69 -73.5
q38 -36 62 -63t41 -61t17 -73q0 -43 -26 -88.5t-94 -79t-184 -33.5v0q-54 0 -134.5 14z" />
    <glyph glyph-name="Scaron" unicode="&#x160;" 
d="M138.5 2q-80.5 14 -118.5 30l14 84q52 -14 97 -14q63 0 96.5 25.5t33.5 61.5q0 33 -21.5 62.5t-64.5 71.5q-55 53 -84 95t-29 97q0 43 23 87.5t86 77t173 32.5q46 0 100 -11t101 -26l-14 -84q-41 12 -70 12q-49 0 -72.5 -26t-23.5 -56q0 -32 23 -61.5t69 -73.5
q38 -36 62 -63t41 -61t17 -73q0 -43 -26 -88.5t-94 -79t-184 -33.5v0q-54 0 -134.5 14zM293 836h10l32 100h175l-109 -186h-134zM86 936h176l31 -100l37 -86h-135z" />
    <glyph glyph-name="T" unicode="T" horiz-adv-x="560" 
d="M150 600h-150l6 100h554l-5 -100h-145v-600h-260v600z" />
    <glyph glyph-name="U" unicode="U" horiz-adv-x="660" 
d="M172 20.5q-68 32.5 -105 92.5t-37 141v446h260v-456q0 -151 40 -151t40 151v456h260v-446q0 -81 -37 -141t-105 -92.5t-158 -32.5v0q-90 0 -158 32.5z" />
    <glyph glyph-name="Uacute" unicode="&#xda;" 
d="M172 20.5q-68 32.5 -105 92.5t-37 141v446h260v-456q0 -151 40 -151t40 151v456h260v-446q0 -81 -37 -141t-105 -92.5t-158 -32.5v0q-90 0 -158 32.5zM272 936h195l-78 -186h-156z" />
    <glyph glyph-name="Ucircumflex" unicode="&#xdb;" 
d="M172 20.5q-68 32.5 -105 92.5t-37 141v446h260v-456q0 -151 40 -151t40 151v456h260v-446q0 -81 -37 -141t-105 -92.5t-158 -32.5v0q-90 0 -158 32.5zM335 850l-36 86h134l109 -186h-175zM227 936h135l-27 -86h-10l-31 -100h-176z" />
    <glyph glyph-name="Udieresis" unicode="&#xdc;" 
d="M172 20.5q-68 32.5 -105 92.5t-37 141v446h260v-456q0 -151 40 -151t40 151v456h260v-446q0 -81 -37 -141t-105 -92.5t-158 -32.5v0q-90 0 -158 32.5zM353.5 774.5q-28.5 26.5 -28.5 68.5t28.5 68.5t78.5 26.5t79 -26.5t29 -68.5t-29 -68.5t-79 -26.5v0q-50 0 -78.5 26.5
zM118.5 774.5q-28.5 26.5 -28.5 68.5t28.5 68.5t78.5 26.5t79 -26.5t29 -68.5t-29 -68.5t-79 -26.5v0q-50 0 -78.5 26.5z" />
    <glyph glyph-name="Ugrave" unicode="&#xd9;" 
d="M172 20.5q-68 32.5 -105 92.5t-37 141v446h260v-456q0 -151 40 -151t40 151v456h260v-446q0 -81 -37 -141t-105 -92.5t-158 -32.5v0q-90 0 -158 32.5zM193 936h194l40 -186h-156z" />
    <glyph glyph-name="V" unicode="V" horiz-adv-x="630" 
d="M10 700h270l30 -479h10l30 479h270l-150 -700h-311z" />
    <glyph glyph-name="W" unicode="W" horiz-adv-x="739" 
d="M0 700h270l11 -462h10l33 362h90l33 -362h10l12 462h270l-110 -700h-220l-40 282l-40 -282h-220z" />
    <glyph glyph-name="X" unicode="X" horiz-adv-x="607" 
d="M157 387l-135 313h260l17 -199h10l16 199h260l-133 -315l155 -385h-260l-38 212h-10l-39 -212h-260z" />
    <glyph glyph-name="Y" unicode="Y" horiz-adv-x="610" 
d="M180 214l-180 486h270l30 -304h10l30 304h270l-170 -486v-214h-260v214z" />
    <glyph glyph-name="Yacute" unicode="&#xdd;" 
d="M180 214l-180 486h270l30 -304h10l30 304h270l-170 -486v-214h-260v214zM247 936h195l-78 -186h-156z" />
    <glyph glyph-name="Z" unicode="Z" horiz-adv-x="550" 
d="M249 600h-194l-5 100h500l-249 -600h239l-5 -100h-535z" />
    <glyph glyph-name="Zcaron" unicode="&#x17d;" 
d="M249 600h-194l-5 100h500l-249 -600h239l-5 -100h-535zM290 836h10l32 100h175l-109 -186h-134zM83 936h176l31 -100l37 -86h-135z" />
    <glyph glyph-name="a" unicode="a" horiz-adv-x="650" 
d="M169 700h311l160 -700h-270l-14 167h-62l-14 -167h-270zM349 257l-19 232h-10l-19 -232h48z" />
    <glyph glyph-name="acircumflex" unicode="&#xe2;" horiz-adv-x="650" 
d="M169 700h311l160 -700h-270l-14 167h-62l-14 -167h-270zM349 257l-19 232h-10l-19 -232h48zM330 850l-36 86h134l109 -186h-175zM222 936h135l-27 -86h-10l-31 -100h-176z" />
    <glyph glyph-name="adieresis" unicode="&#xe4;" horiz-adv-x="650" 
d="M169 700h311l160 -700h-270l-14 167h-62l-14 -167h-270zM349 257l-19 232h-10l-19 -232h48zM358.5 774.5q-28.5 26.5 -28.5 68.5t28.5 68.5t78.5 26.5t79 -26.5t29 -68.5t-29 -68.5t-79 -26.5v0q-50 0 -78.5 26.5zM123.5 774.5q-28.5 26.5 -28.5 68.5t28.5 68.5
t78.5 26.5t79 -26.5t29 -68.5t-29 -68.5t-79 -26.5v0q-50 0 -78.5 26.5z" />
    <glyph glyph-name="agrave" unicode="&#xe0;" horiz-adv-x="650" 
d="M169 700h311l160 -700h-270l-14 167h-62l-14 -167h-270zM349 257l-19 232h-10l-19 -232h48zM188 936h194l40 -186h-156z" />
    <glyph glyph-name="aring" unicode="&#xe5;" horiz-adv-x="650" 
d="M189.5 676q-49.5 43 -49.5 110t49.5 110t135.5 43t135.5 -43t49.5 -110t-49.5 -110t-135.5 -43v0q-86 0 -135.5 43zM388 753q23 13 23 33t-23 33t-63 13t-63.5 -13t-23.5 -33t23.5 -33t63.5 -13v0q40 0 63 13zM480 700l160 -700h-270l-14 167h-62l-14 -167h-270l159 700
h311zM330 489h-10l-19 -232h48z" />
    <glyph glyph-name="atilde" unicode="&#xe3;" horiz-adv-x="650" 
d="M169 700h311l160 -700h-270l-14 167h-62l-14 -167h-270zM349 257l-19 232h-10l-19 -232h48zM355.5 756.5q-19.5 8.5 -43.5 23.5q-33 21 -49 21q-17 0 -26.5 -15t-12.5 -36h-90q0 91 33 139.5t87 48.5q21 0 39.5 -8t44.5 -24q14 -8 26.5 -14.5t21.5 -6.5q17 0 27 15t12 36
h91q0 -91 -33 -139.5t-87 -48.5v0q-21 0 -40.5 8.5z" />
    <glyph glyph-name="ae" unicode="&#xe6;" horiz-adv-x="875" 
d="M219 700h180l-20 -211h-10l-89 -489h-270zM250 257h129v-90h-129v90zM639 100h226l-5 -100h-221v100zM379 700h260v-700h-260v700zM639 442h120v-100h-120v100zM639 700h200l-4 -100h-196v100z" />
    <glyph glyph-name="b" unicode="b" horiz-adv-x="665" 
d="M50 10v680q142 17 260 17q76 0 142 -19t106 -55.5t40 -86.5q0 -43 -25.5 -76.5t-72.5 -54.5q73 -27 114 -77.5t41 -119.5t-47.5 -120.5t-126 -78t-171.5 -26.5v0q-118 0 -260 17zM351.5 111.5q14.5 17.5 24 49.5t9.5 75q0 42 -9.5 74t-24 49.5t-26.5 17.5
q-10 0 -12.5 -30.5t-2.5 -110.5q0 -81 2.5 -111.5t12.5 -30.5v0q12 0 26.5 17.5zM343.5 452q11.5 10 19.5 29t8 43q0 25 -8 44t-19.5 29t-21.5 10q-8 0 -10 -18t-2 -65q0 -46 2 -64t10 -18v0q10 0 21.5 10z" />
    <glyph glyph-name="c" unicode="c" horiz-adv-x="555" 
d="M210 31q-82 43 -131 125t-49 194t49 194t131 125t180 43q76 0 135 -25l-13 -84q-40 7 -74 7q-42 0 -75.5 -31t-53 -90t-19.5 -139t19.5 -139t53 -90t75.5 -31q34 0 74 7l13 -84q-59 -25 -135 -25v0q-98 0 -180 43z" />
    <glyph glyph-name="ccedilla" unicode="&#xe7;" 
d="M175 -328l28 111q69 8 107 24t38 35q0 17 -30.5 32t-86.5 24l19 74q80 -4 125 -46t45 -107q0 -67 -49.5 -110t-135.5 -43v0q-33 0 -60 6zM250 -28l15 56l87 -28l-19 -50l-19 -51zM210 31q-82 43 -131 125t-49 194t49 194t131 125t180 43q76 0 135 -25l-13 -84
q-40 7 -74 7q-42 0 -75.5 -31t-53 -90t-19.5 -139t19.5 -139t53 -90t75.5 -31q34 0 74 7l13 -84q-59 -25 -135 -25v0v0q-98 0 -180 43z" />
    <glyph glyph-name="d" unicode="d" horiz-adv-x="690" 
d="M50 10v680q142 17 260 17q94 0 174 -42.5t128 -123.5t48 -191t-48 -191t-128 -123.5t-174 -42.5v0q-118 0 -260 17zM351.5 125.5q14.5 31.5 24 90t9.5 135.5q0 76 -9.5 134.5t-24 90t-26.5 31.5q-10 0 -12.5 -55t-2.5 -201t2.5 -201.5t12.5 -55.5v0q12 0 26.5 31.5z" />
    <glyph glyph-name="e" unicode="e" horiz-adv-x="546" 
d="M50 700h460l-5 -100h-195v-158h120v-100h-120v-242h226l-5 -100h-481v700z" />
    <glyph glyph-name="eacute" unicode="&#xe9;" 
d="M50 700h460l-5 -100h-195v-158h120v-100h-120v-242h226l-5 -100h-481v700zM205 936h195l-78 -186h-156z" />
    <glyph glyph-name="ecircumflex" unicode="&#xea;" 
d="M50 700h460l-5 -100h-195v-158h120v-100h-120v-242h226l-5 -100h-481v700zM288 850l-36 86h134l109 -186h-175zM180 936h135l-27 -86h-10l-31 -100h-176z" />
    <glyph glyph-name="edieresis" unicode="&#xeb;" 
d="M50 700h460l-5 -100h-195v-158h120v-100h-120v-242h226l-5 -100h-481v700zM306.5 774.5q-28.5 26.5 -28.5 68.5t28.5 68.5t78.5 26.5t79 -26.5t29 -68.5t-29 -68.5t-79 -26.5v0q-50 0 -78.5 26.5zM71.5 774.5q-28.5 26.5 -28.5 68.5t28.5 68.5t78.5 26.5t79 -26.5
t29 -68.5t-29 -68.5t-79 -26.5v0q-50 0 -78.5 26.5z" />
    <glyph glyph-name="egrave" unicode="&#xe8;" 
d="M50 700h460l-5 -100h-195v-158h120v-100h-120v-242h226l-5 -100h-481v700zM166 936h194l40 -186h-156z" />
    <glyph glyph-name="f" unicode="f" horiz-adv-x="539" 
d="M50 700h260v-1h209l-6 -100h-203v-177h129v-100h-129v-322h-260v700z" />
    <glyph glyph-name="g" unicode="g" horiz-adv-x="697" 
d="M210 31q-82 43 -131 125t-49 194t49 194t131 125t180 43q76 0 135 -25l-13 -84q-40 7 -74 7q-42 0 -75.5 -31t-53 -90t-19.5 -139q0 -102 31 -168.5t81 -85.5v246h-54v100h314v-335q-34 -50 -104 -84.5t-168 -34.5v0q-98 0 -180 43z" />
    <glyph glyph-name="h" unicode="h" horiz-adv-x="693" 
d="M50 700h260v-258h73v258h260v-700h-260v342h-73v-342h-260v700z" />
    <glyph glyph-name="i" unicode="i" horiz-adv-x="360" 
d="M50 700h260v-700h-260v700z" />
    <glyph glyph-name="dotlessi" unicode="&#x131;" horiz-adv-x="360" 
d="M50 700h260v-700h-260v700z" />
    <glyph glyph-name="iacute" unicode="&#xed;" horiz-adv-x="358" 
d="M50 700h260v-700h-260v700zM113 936h194l-78 -186h-156z" />
    <glyph glyph-name="icircumflex" unicode="&#xee;" horiz-adv-x="359" 
d="M50 700h260v-700h-260v700zM77 936h134l-27 -86h-10l-31 -100h-176zM184 850l-36 86h134l110 -186h-176z" />
    <glyph glyph-name="idieresis" unicode="&#xef;" horiz-adv-x="360" 
d="M50 700h260v-700h-260v700zM-19.5 774.5q-28.5 26.5 -28.5 68.5t28.5 68.5t78.5 26.5t79 -26.5t29 -68.5t-29 -68.5t-79 -26.5v0q-50 0 -78.5 26.5zM215.5 774.5q-28.5 26.5 -28.5 68.5t28.5 68.5t78.5 26.5t79 -26.5t29 -68.5t-29 -68.5t-79 -26.5v0q-50 0 -78.5 26.5z
" />
    <glyph glyph-name="igrave" unicode="&#xec;" horiz-adv-x="360" 
d="M50 700h260v-700h-260v700zM33 936h194l40 -186h-156z" />
    <glyph glyph-name="j" unicode="j" horiz-adv-x="491" 
d="M69.5 -7.5q-39.5 4.5 -69.5 12.5l9 100q50 -12 84 -12q42 0 65 17.5t33 59.5t10 118v412h260v-412q0 -164 -82 -232t-238 -68v0q-32 0 -71.5 4.5z" />
    <glyph glyph-name="k" unicode="k" horiz-adv-x="710" 
d="M50 700h260v-229h10l50 229h270l-140 -302l190 -395h-270l-100 257h-10v-260h-260v700z" />
    <glyph glyph-name="l" unicode="l" horiz-adv-x="520" 
d="M50 700h260v-600h200l-5 -100h-455v700z" />
    <glyph glyph-name="m" unicode="m" horiz-adv-x="769" 
d="M50 700h230l105 -420l104 420h230v-700h-260l5 305h-10l-24 -205h-90l-25 205h-10l5 -305h-260v700z" />
    <glyph glyph-name="n" unicode="n" horiz-adv-x="693" 
d="M50 700h230l99 -367h10v-1l-6 368h260v-700h-230l-98 315h-10v1l5 -316h-260v700z" />
    <glyph glyph-name="ntilde" unicode="&#xf1;" 
d="M50 700h230l99 -367h10v-1l-6 368h260v-700h-230l-98 315h-10v1l5 -316h-260v700zM367.5 756.5q-19.5 8.5 -43.5 23.5q-33 21 -49 21q-17 0 -26.5 -15t-12.5 -36h-90q0 91 33 139.5t87 48.5q21 0 39.5 -8t44.5 -24q14 -8 26.5 -14.5t21.5 -6.5q17 0 27 15t12 36h91
q0 -91 -33 -139.5t-87 -48.5v0q-21 0 -40.5 8.5z" />
    <glyph glyph-name="o" unicode="o" horiz-adv-x="700" 
d="M185.5 32q-72.5 43 -114 124.5t-41.5 194.5t41.5 194.5t114 124.5t164.5 43t164.5 -43t114 -124.5t41.5 -194.5t-41.5 -194.5t-114 -124.5t-164.5 -43v0q-92 0 -164.5 43zM381.5 163.5q13.5 69.5 13.5 187.5t-13.5 187.5t-31.5 69.5t-31.5 -69.5t-13.5 -187.5
t13.5 -187.5t31.5 -69.5v0q18 0 31.5 69.5z" />
    <glyph glyph-name="oacute" unicode="&#xf3;" 
d="M185.5 32q-72.5 43 -114 124.5t-41.5 194.5t41.5 194.5t114 124.5t164.5 43t164.5 -43t114 -124.5t41.5 -194.5t-41.5 -194.5t-114 -124.5t-164.5 -43v0q-92 0 -164.5 43zM381.5 163.5q13.5 69.5 13.5 187.5t-13.5 187.5t-31.5 69.5t-31.5 -69.5t-13.5 -187.5
t13.5 -187.5t31.5 -69.5v0q18 0 31.5 69.5zM292 936h195l-78 -186h-156z" />
    <glyph glyph-name="ocircumflex" unicode="&#xf4;" 
d="M185.5 32q-72.5 43 -114 124.5t-41.5 194.5t41.5 194.5t114 124.5t164.5 43t164.5 -43t114 -124.5t41.5 -194.5t-41.5 -194.5t-114 -124.5t-164.5 -43v0q-92 0 -164.5 43zM381.5 163.5q13.5 69.5 13.5 187.5t-13.5 187.5t-31.5 69.5t-31.5 -69.5t-13.5 -187.5
t13.5 -187.5t31.5 -69.5v0q18 0 31.5 69.5zM355 850l-36 86h134l109 -186h-175zM247 936h135l-27 -86h-10l-31 -100h-176z" />
    <glyph glyph-name="odieresis" unicode="&#xf6;" 
d="M185.5 32q-72.5 43 -114 124.5t-41.5 194.5t41.5 194.5t114 124.5t164.5 43t164.5 -43t114 -124.5t41.5 -194.5t-41.5 -194.5t-114 -124.5t-164.5 -43v0q-92 0 -164.5 43zM381.5 163.5q13.5 69.5 13.5 187.5t-13.5 187.5t-31.5 69.5t-31.5 -69.5t-13.5 -187.5
t13.5 -187.5t31.5 -69.5v0q18 0 31.5 69.5zM373.5 774.5q-28.5 26.5 -28.5 68.5t28.5 68.5t78.5 26.5t79 -26.5t29 -68.5t-29 -68.5t-79 -26.5v0q-50 0 -78.5 26.5zM138.5 774.5q-28.5 26.5 -28.5 68.5t28.5 68.5t78.5 26.5t79 -26.5t29 -68.5t-29 -68.5t-79 -26.5v0
q-50 0 -78.5 26.5z" />
    <glyph glyph-name="ograve" unicode="&#xf2;" 
d="M185.5 32q-72.5 43 -114 124.5t-41.5 194.5t41.5 194.5t114 124.5t164.5 43t164.5 -43t114 -124.5t41.5 -194.5t-41.5 -194.5t-114 -124.5t-164.5 -43v0q-92 0 -164.5 43zM381.5 163.5q13.5 69.5 13.5 187.5t-13.5 187.5t-31.5 69.5t-31.5 -69.5t-13.5 -187.5
t13.5 -187.5t31.5 -69.5v0q18 0 31.5 69.5zM213 936h194l40 -186h-156z" />
    <glyph glyph-name="oslash" unicode="&#xf8;" horiz-adv-x="700" 
d="M185.5 31q-72.5 43 -114 124.5t-41.5 194.5t41.5 194.5t114 124.5t164.5 43t164.5 -43t114 -124.5t41.5 -194.5t-41.5 -194.5t-114 -124.5t-164.5 -43v0q-92 0 -164.5 43zM478 741h80l-336 -782h-80zM381.5 162.5q13.5 69.5 13.5 187.5t-13.5 187.5t-31.5 69.5
t-31.5 -69.5t-13.5 -187.5t13.5 -187.5t31.5 -69.5v0q18 0 31.5 69.5z" />
    <glyph glyph-name="otilde" unicode="&#xf5;" 
d="M185.5 32q-72.5 43 -114 124.5t-41.5 194.5t41.5 194.5t114 124.5t164.5 43t164.5 -43t114 -124.5t41.5 -194.5t-41.5 -194.5t-114 -124.5t-164.5 -43v0q-92 0 -164.5 43zM381.5 163.5q13.5 69.5 13.5 187.5t-13.5 187.5t-31.5 69.5t-31.5 -69.5t-13.5 -187.5
t13.5 -187.5t31.5 -69.5v0q18 0 31.5 69.5zM380.5 756.5q-19.5 8.5 -43.5 23.5q-33 21 -49 21q-17 0 -26.5 -15t-12.5 -36h-90q0 91 33 139.5t87 48.5q21 0 39.5 -8t44.5 -24q14 -8 26.5 -14.5t21.5 -6.5q17 0 27 15t12 36h91q0 -91 -33 -139.5t-87 -48.5v0q-21 0 -40.5 8.5
z" />
    <glyph glyph-name="oe" unicode="&#x153;" horiz-adv-x="1020" 
d="M185.5 43q-72.5 43 -114 124.5t-41.5 194.5t41.5 194.5t114 124.5t164.5 43t164.5 -43t114 -124.5t41.5 -194.5t-41.5 -194.5t-114 -124.5t-164.5 -43v0q-92 0 -164.5 43zM381.5 174.5q13.5 69.5 13.5 187.5t-13.5 187.5t-31.5 69.5t-31.5 -69.5t-13.5 -187.5
t13.5 -187.5t31.5 -69.5v0q18 0 31.5 69.5zM784 112h226l-5 -100h-221v100zM524 712h260v-700h-260v700zM784 454h120v-100h-120v100zM784 712h200l-5 -100h-195v100z" />
    <glyph glyph-name="p" unicode="p" horiz-adv-x="685" 
d="M310 707q93 0 171.5 -32.5t126 -94.5t47.5 -146t-47.5 -146.5t-126 -95t-171.5 -32.5v-160h-260v690q142 17 260 17zM351.5 282.5q14.5 21.5 24 61t9.5 90.5t-10 90t-24 60.5t-26 21.5q-10 0 -12.5 -37t-2.5 -135t2.5 -135.5t12.5 -37.5v0q12 0 26.5 21.5z" />
    <glyph glyph-name="q" unicode="q" horiz-adv-x="700" 
d="M219 -18.5q-130 95.5 -170 230.5v-1v1q-16 50 -19 118v2v18v0q0 113 41.5 194.5t114 124.5t164.5 43t164.5 -43t114 -124.5t41.5 -194.5q0 -145 -67 -237.5t-178 -116.5v0v0v-10h195l-5 -100v0q-266 0 -396 95.5zM381.5 162.5q13.5 69.5 13.5 187.5t-13.5 187.5
t-31.5 69.5t-31.5 -69.5t-13.5 -187.5t13.5 -187.5t31.5 -69.5v0q18 0 31.5 69.5z" />
    <glyph glyph-name="r" unicode="r" horiz-adv-x="697" 
d="M320 206v0h-10v-146v-60h-260v690q142 17 260 17v0v0v0v0q93 0 171.5 -29.5t126 -86.5t47.5 -134q0 -70 -38.5 -123t-105.5 -85l176 -249h-270l-97 206v0zM351.5 326.5q14.5 18.5 24 52.5t9.5 78t-9.5 78t-24 52.5t-26.5 18.5q-10 0 -12.5 -31.5t-2.5 -107.5v-21
q0 -76 2.5 -107t12.5 -31v0q12 0 26.5 18.5z" />
    <glyph glyph-name="s" unicode="s" horiz-adv-x="607" 
d="M138.5 2q-80.5 14 -118.5 30l14 84q52 -14 97 -14q63 0 96.5 25.5t33.5 61.5q0 33 -21.5 62.5t-64.5 71.5q-55 53 -84 95t-29 97q0 43 23 87.5t86 77t173 32.5q46 0 100 -11t101 -26l-14 -84q-41 12 -70 12q-49 0 -72.5 -26t-23.5 -56q0 -32 23 -61.5t69 -73.5
q38 -36 62 -63t41 -61t17 -73q0 -43 -26 -88.5t-94 -79t-184 -33.5v0q-54 0 -134.5 14z" />
    <glyph glyph-name="scaron" unicode="&#x161;" 
d="M138.5 2q-80.5 14 -118.5 30l14 84q52 -14 97 -14q63 0 96.5 25.5t33.5 61.5q0 33 -21.5 62.5t-64.5 71.5q-55 53 -84 95t-29 97q0 43 23 87.5t86 77t173 32.5q46 0 100 -11t101 -26l-14 -84q-41 12 -70 12q-49 0 -72.5 -26t-23.5 -56q0 -32 23 -61.5t69 -73.5
q38 -36 62 -63t41 -61t17 -73q0 -43 -26 -88.5t-94 -79t-184 -33.5v0q-54 0 -134.5 14zM293 836h10l32 100h175l-109 -186h-134zM86 936h176l31 -100l37 -86h-135z" />
    <glyph glyph-name="germandbls" unicode="&#xdf;" horiz-adv-x="665" 
d="M86 639q36 33 95.5 50.5t128.5 17.5q76 0 142 -19t106 -55.5t40 -86.5q0 -43 -25.5 -76.5t-72.5 -54.5q73 -27 114 -77.5t41 -119.5q0 -92 -82.5 -148.5t-208.5 -67.5l-16 106q16 17 26.5 50t10.5 78q0 41 -16.5 77.5t-40.5 60.5v72q18 14 30.5 34t12.5 44q0 25 -8 44
t-19.5 29t-21.5 10q-8 0 -10 -18t-2 -65v-524h-260v561q0 45 36 78z" />
    <glyph glyph-name="t" unicode="t" horiz-adv-x="560" 
d="M150 600h-150l6 100h554l-5 -100h-145v-600h-260v600z" />
    <glyph glyph-name="u" unicode="u" horiz-adv-x="660" 
d="M172 20.5q-68 32.5 -105 92.5t-37 141v446h260v-456q0 -151 40 -151t40 151v456h260v-446q0 -81 -37 -141t-105 -92.5t-158 -32.5v0q-90 0 -158 32.5z" />
    <glyph glyph-name="uacute" unicode="&#xfa;" 
d="M172 20.5q-68 32.5 -105 92.5t-37 141v446h260v-456q0 -151 40 -151t40 151v456h260v-446q0 -81 -37 -141t-105 -92.5t-158 -32.5v0q-90 0 -158 32.5zM272 936h195l-78 -186h-156z" />
    <glyph glyph-name="ucircumflex" unicode="&#xfb;" 
d="M172 20.5q-68 32.5 -105 92.5t-37 141v446h260v-456q0 -151 40 -151t40 151v456h260v-446q0 -81 -37 -141t-105 -92.5t-158 -32.5v0q-90 0 -158 32.5zM335 850l-36 86h134l109 -186h-175zM227 936h135l-27 -86h-10l-31 -100h-176z" />
    <glyph glyph-name="udieresis" unicode="&#xfc;" 
d="M172 20.5q-68 32.5 -105 92.5t-37 141v446h260v-456q0 -151 40 -151t40 151v456h260v-446q0 -81 -37 -141t-105 -92.5t-158 -32.5v0q-90 0 -158 32.5zM353.5 774.5q-28.5 26.5 -28.5 68.5t28.5 68.5t78.5 26.5t79 -26.5t29 -68.5t-29 -68.5t-79 -26.5v0q-50 0 -78.5 26.5
zM118.5 774.5q-28.5 26.5 -28.5 68.5t28.5 68.5t78.5 26.5t79 -26.5t29 -68.5t-29 -68.5t-79 -26.5v0q-50 0 -78.5 26.5z" />
    <glyph glyph-name="ugrave" unicode="&#xf9;" 
d="M172 20.5q-68 32.5 -105 92.5t-37 141v446h260v-456q0 -151 40 -151t40 151v456h260v-446q0 -81 -37 -141t-105 -92.5t-158 -32.5v0q-90 0 -158 32.5zM193 936h194l40 -186h-156z" />
    <glyph glyph-name="v" unicode="v" horiz-adv-x="630" 
d="M10 700h270l30 -479h10l30 479h270l-150 -700h-311z" />
    <glyph glyph-name="w" unicode="w" horiz-adv-x="739" 
d="M0 700h270l11 -462h10l33 362h90l33 -362h10l12 462h270l-110 -700h-220l-40 282l-40 -282h-220z" />
    <glyph glyph-name="x" unicode="x" horiz-adv-x="607" 
d="M157 387l-135 313h260l17 -199h10l16 199h260l-133 -315l155 -385h-260l-38 212h-10l-39 -212h-260z" />
    <glyph glyph-name="y" unicode="y" horiz-adv-x="610" 
d="M180 214l-180 486h270l30 -304h10l30 304h270l-170 -486v-214h-260v214z" />
    <glyph glyph-name="yacute" unicode="&#xfd;" 
d="M180 214l-180 486h270l30 -304h10l30 304h270l-170 -486v-214h-260v214zM247 936h195l-78 -186h-156z" />
    <glyph glyph-name="ydieresis" unicode="&#xff;" 
d="M180 214l-180 486h270l30 -304h10l30 304h270l-170 -486v-214h-260v214zM343.5 774.5q-28.5 26.5 -28.5 68.5t28.5 68.5t78.5 26.5t79 -26.5t29 -68.5t-29 -68.5t-79 -26.5v0q-50 0 -78.5 26.5zM108.5 774.5q-28.5 26.5 -28.5 68.5t28.5 68.5t78.5 26.5t79 -26.5
t29 -68.5t-29 -68.5t-79 -26.5v0q-50 0 -78.5 26.5z" />
    <glyph glyph-name="z" unicode="z" horiz-adv-x="550" 
d="M249 600h-194l-5 100h500l-249 -600h239l-5 -100h-535z" />
    <glyph glyph-name="zcaron" unicode="&#x17e;" 
d="M249 600h-194l-5 100h500l-249 -600h239l-5 -100h-535zM290 836h10l32 100h175l-109 -186h-134zM83 936h176l31 -100l37 -86h-135z" />
    <glyph glyph-name="zero" unicode="0" horiz-adv-x="622" 
d="M166.5 31q-63.5 43 -100 124.5t-36.5 194.5t36.5 194.5t100 124.5t144.5 43t144.5 -43t100 -124.5t36.5 -194.5t-36.5 -194.5t-100 -124.5t-144.5 -43v0q-81 0 -144.5 43zM337.5 162q10.5 69 10.5 188t-10.5 188t-26.5 69t-26.5 -69t-10.5 -188t10.5 -188t26.5 -69v0
q16 0 26.5 69z" />
    <glyph glyph-name="one" unicode="1" horiz-adv-x="435" 
d="M125 583h-125l6 100l379 20v-703h-260v583z" />
    <glyph glyph-name="two" unicode="2" horiz-adv-x="555" 
d="M50.5 209q30.5 55 89.5 136q46 61 68.5 100t22.5 71q0 30 -23 56t-72 26q-29 0 -71 -12l-13 84q47 15 101 26t100 11q109 0 172 -32.5t86.5 -77t23.5 -87.5q0 -54 -28.5 -107.5t-84.5 -132.5q-45 -63 -66 -100t-21 -70h200l-5 -100h-510v100q0 54 30.5 109z" />
    <glyph glyph-name="three" unicode="3" horiz-adv-x="570" 
d="M88.5 0q-38.5 7 -68.5 21l14 87q25 -7 55 -7q50 0 91.5 22.5t66 59.5t24.5 78q0 53 -37 90t-94 53l-5 81l83 105v10h-166l6 100h450l-6 -105l-195 -99v-10q103 -26 168 -84.5t65 -143.5q0 -78 -54.5 -138.5t-141 -93.5t-179.5 -33v0q-38 0 -76.5 7z" />
    <glyph glyph-name="four" unicode="4" horiz-adv-x="611" 
d="M304 168h-294v90l291 442h260v-442h40v-90h-40v-168h-260zM306 258l5 282h-8l-179 -272v-10h182z" />
    <glyph glyph-name="five" unicode="5" horiz-adv-x="560" 
d="M88.5 0q-38.5 7 -68.5 21l14 87q25 -7 55 -7q50 0 91.5 22.5t66 59.5t24.5 78q0 47 -29.5 81.5t-76 53t-95.5 18.5l17 286h420l-5 -105l-252 4l-19 -100q83 -9 153.5 -39.5t113 -82t42.5 -119.5q0 -78 -54.5 -138.5t-141 -93.5t-179.5 -33v0q-38 0 -76.5 7z" />
    <glyph glyph-name="six" unicode="6" horiz-adv-x="641" 
d="M178 37q-70 44 -109 124t-39 189q0 113 42 195t116.5 124.5t171.5 42.5q76 0 135 -25l-13 -84q-40 7 -74 7q-88 0 -110 -142q21 3 43 3q72 0 133.5 -26.5t99 -79t37.5 -126.5q0 -71 -34.5 -126.5t-92 -87.5t-124.5 -36v-1h-10h-9h-1q-92 5 -162 49zM340 93q14 12 23.5 48
t9.5 89q0 64 -14 102.5t-32 38.5q-9 0 -18 -10.5t-15 -30.5q-13 -39 -13 -100q0 -65 13.5 -103.5t32.5 -38.5v0q5 0 13 5z" />
    <glyph glyph-name="seven" unicode="7" horiz-adv-x="534" 
d="M251 589v9h-251l5 100h519l-160 -700h-260z" />
    <glyph glyph-name="eight" unicode="8" horiz-adv-x="677" 
d="M185.5 14.5q-70.5 26.5 -113 78t-42.5 120.5t36.5 119.5t101.5 77.5q-41 22 -63.5 56t-22.5 79q0 52 35.5 89.5t94.5 57.5t127 20t127 -20t94.5 -58t35.5 -89q0 -45 -23 -79.5t-64 -55.5q65 -27 101.5 -77.5t36.5 -119.5t-42.5 -120t-112.5 -78t-153 -27v0
q-83 0 -153.5 26.5zM370.5 125.5q13.5 37.5 13.5 100.5t-13.5 100.5t-31.5 37.5t-31.5 -37.5t-13.5 -100.5t13.5 -100.5t31.5 -37.5v0q18 0 31.5 37.5zM365.5 462q11.5 24 11.5 63t-11.5 63t-26.5 24q-16 0 -27 -23.5t-11 -63.5t11 -63.5t27 -23.5v0q15 0 26.5 24z" />
    <glyph glyph-name="nine" unicode="9" horiz-adv-x="641" 
d="M146 13l14 84q39 -7 74 -7q87 0 109 142q-21 -3 -43 -3q-72 0 -133.5 26.5t-99 79t-37.5 126.5q0 71 34.5 126.5t92 87.5t124.5 36v1h11h8h1q92 -5 162 -49t109 -124t39 -189q0 -113 -41.5 -195t-116.5 -124.5t-172 -42.5v0q-75 0 -135 25zM348 370q12 41 12 100
q0 65 -13.5 103.5t-32.5 38.5q-5 0 -12 -5q-15 -12 -24 -47.5t-9 -89.5q0 -64 13.5 -102.5t31.5 -38.5v0q20 0 34 41z" />
    <glyph glyph-name="period" unicode="." horiz-adv-x="630" 
d="M60 16q-30 28 -30 72t30 72t83 28t83 -28t30 -72t-30 -72t-83 -28v0q-53 0 -83 28z" />
    <glyph glyph-name="comma" unicode="," horiz-adv-x="293" 
d="M32 -128l7 36q62 0 87 37.5t25 93.5q0 24 -4 47t-9 38t-7 15l12 49q56 -2 88 -36.5t32 -95.5q0 -20 -2 -31q-10 -77 -56.5 -120.5t-113.5 -43.5v0q-32 0 -59 11zM60 16q-30 28 -30 72t30 72t83 28q32 0 57.5 -20.5t40.5 -46t15 -33.5q0 -44 -30 -72t-83 -28v0
q-53 0 -83 28z" />
    <glyph glyph-name="colon" unicode=":" horiz-adv-x="584" 
d="M60 306q-30 28 -30 72q0 43 30.5 71.5t82.5 28.5t82.5 -28.5t30.5 -71.5q0 -44 -30 -72t-83 -28v0q-53 0 -83 28zM60 16q-30 28 -30 72t30 72t83 28t83 -28t30 -72t-30 -72t-83 -28v0q-53 0 -83 28z" />
    <glyph glyph-name="semicolon" unicode=";" 
d="M32 -128l7 36q62 0 87 37.5t25 93.5q0 24 -4 47t-9 38t-7 15l12 49q56 -2 88 -36.5t32 -95.5q0 -20 -2 -31q-10 -77 -56.5 -120.5t-113.5 -43.5v0q-32 0 -59 11zM60 16q-30 28 -30 72t30 72t83 28q32 0 57.5 -20.5t40.5 -46t15 -33.5q0 -44 -30 -72t-83 -28v0
q-53 0 -83 28zM60 306q-30 28 -30 72q0 43 30.5 71.5t82.5 28.5t82.5 -28.5t30.5 -71.5q0 -44 -30 -72t-83 -28v0q-53 0 -83 28z" />
    <glyph glyph-name="ellipsis" unicode="&#x2026;" horiz-adv-x="630" 
d="M60 16q-30 28 -30 72t30 72t83 28t83 -28t30 -72t-30 -72t-83 -28v0v0q-53 0 -83 28zM60 16q-30 28 -30 72t30 72t83 28t83 -28t30 -72t-30 -72t-83 -28v0v0q-53 0 -83 28zM60 16q-30 28 -30 72t30 72t83 28t83 -28t30 -72t-30 -72t-83 -28v0v0q-53 0 -83 28z" />
    <glyph glyph-name="exclam" unicode="!" horiz-adv-x="360" 
d="M50 700h260l-10 -452h-240zM97 16q-30 28 -30 72t30 72t83 28t83 -28t30 -72t-30 -72t-83 -28v0q-53 0 -83 28z" />
    <glyph glyph-name="exclamdown" unicode="&#xa1;" horiz-adv-x="360" 
d="M60 452h240l10 -452h-260zM97 540q-30 28 -30 72t30 72t83 28t83 -28t30 -72t-30 -72t-83 -28v0q-53 0 -83 28z" />
    <glyph glyph-name="question" unicode="?" horiz-adv-x="529" 
d="M75 335q25 38 72 86q38 39 56 64.5t18 54.5q0 16 -11 33t-35 29t-59 12t-72 -11l-14 76q47 14 101.5 23.5t101.5 9.5q95 0 150.5 -29t77 -68.5t21.5 -77.5q0 -41 -26 -76t-76 -83q-45 -43 -66.5 -71t-21.5 -59h-242v0q0 49 25 87zM89 16q-30 28 -30 72t30 72t83 28
t83 -28t30 -72t-30 -72t-83 -28v0q-53 0 -83 28z" />
    <glyph glyph-name="questiondown" unicode="&#xbf;" horiz-adv-x="552" 
d="M148.5 17q-55.5 29 -77 68.5t-21.5 77.5q0 41 26 76t76 83q45 43 66.5 71t21.5 59h242q0 -49 -25 -87t-72 -86q-39 -40 -57 -65t-18 -54q0 -16 11.5 -33t35.5 -29t59 -12t72 11l14 -76q-47 -14 -101.5 -23.5t-101.5 -9.5v0q-95 0 -150.5 29zM277 540q-30 28 -30 72t30 72
t83 28t83 -28t30 -72t-30 -72t-83 -28v0q-53 0 -83 28z" />
    <glyph glyph-name="periodcentered" unicode="&#xb7;" horiz-adv-x="282" 
d="M77 295q-27 27 -27 64q0 38 26.5 64.5t64.5 26.5t64.5 -26.5t26.5 -64.5q0 -37 -26.5 -64t-64.5 -27v0q-37 0 -64 27z" />
    <glyph glyph-name="bullet" unicode="&#x2022;" horiz-adv-x="363" 
d="M115.5 245.5q-30.5 17.5 -48 48t-17.5 65.5q0 36 17.5 66.5t48 48t66.5 17.5q35 0 65.5 -17.5t48 -48t17.5 -66.5q0 -35 -17.5 -65.5t-48 -48t-65.5 -17.5v0q-36 0 -66.5 17.5z" />
    <glyph glyph-name="asterisk" unicode="*" horiz-adv-x="482" 
d="M46 398l96 107l-112 10l19 139l127 -24l-5 123h140l-5 -123l127 24l19 -139l-112 -10l96 -107l-107 -90l-88 114l-88 -114z" />
    <glyph glyph-name="numbersign" unicode="#" horiz-adv-x="721" 
d="M175 170h-145v100h160l23 148h-141v100h157l22 142h100l-22 -142h108l22 142h100l-22 -142h154v-100h-170l-23 -148h151v-100h-166l-26 -170h-100l26 170h-108l-26 -170h-100zM398 270l23 148h-108l-23 -148h108z" />
    <glyph glyph-name="slash" unicode="/" horiz-adv-x="496" 
d="M266 753h220l-256 -783h-220z" />
    <glyph glyph-name="backslash" unicode="\" horiz-adv-x="496" 
d="M10 753h220l256 -783h-220z" />
    <glyph glyph-name="parenleft" unicode="(" horiz-adv-x="360" 
d="M158.5 34q-59.5 52 -94 132.5t-34.5 183.5t34.5 183.5t94 132.5t136.5 72l55 -113q-44 -22 -71.5 -94t-27.5 -181t27.5 -181t71.5 -94l-55 -113v0q-77 20 -136.5 72z" />
    <glyph glyph-name="parenright" unicode=")" horiz-adv-x="360" 
d="M81.5 169q27.5 72 27.5 181t-27.5 181t-71.5 94l55 113q77 -20 136.5 -72t94 -132.5t34.5 -183.5t-34.5 -183.5t-94 -132.5t-136.5 -72l-55 113q44 22 71.5 94z" />
    <glyph glyph-name="braceleft" unicode="{" horiz-adv-x="337" 
d="M165 -34q-53 38 -67.5 87t-18.5 122q-3 42 -6.5 63.5t-15.5 35.5t-37 14v100q25 0 37 14t15.5 35t6.5 63q4 73 18.5 122t67.5 87.5t161 43.5v-112q-27 0 -40.5 -15t-18 -38.5t-6.5 -63.5q-4 -67 -17.5 -110.5t-55.5 -70.5v-10q42 -27 55.5 -71t17.5 -111q2 -40 6.5 -63.5
t18 -38.5t40.5 -15v-111v0q-108 5 -161 43z" />
    <glyph glyph-name="braceright" unicode="}" horiz-adv-x="346" 
d="M60.5 49q13.5 15 17.5 37.5t7 64.5q3 45 7.5 75t20 59t45.5 48v10q-30 19 -45.5 47.5t-20 58.5t-7.5 75q-3 42 -7 64.5t-17.5 37.5t-40.5 15v112q107 -5 160 -43.5t67.5 -87.5t18.5 -122q3 -41 6.5 -62.5t15.5 -35.5t37 -14v-100q-24 0 -36.5 -14t-16 -36t-6.5 -63
q-4 -73 -18.5 -122t-67.5 -87t-160 -43v111q27 0 40.5 15z" />
    <glyph glyph-name="bracketleft" unicode="[" horiz-adv-x="400" 
d="M50 753h310v-100h-90v-630h90v-100h-310v830z" />
    <glyph glyph-name="bracketright" unicode="]" horiz-adv-x="400" 
d="M40 23h90v630h-90v100h310v-830h-310v100z" />
    <glyph glyph-name="hyphen" unicode="-" horiz-adv-x="370" 
d="M30 388h310v-100h-310v100z" />
    <glyph glyph-name="emdash" unicode="&#x2014;" horiz-adv-x="729" 
d="M30 385h669v-100h-669v100z" />
    <glyph glyph-name="underscore" unicode="_" horiz-adv-x="470" 
d="M30 0h410v-100h-410v100z" />
    <glyph glyph-name="quotesinglbase" unicode="&#x201a;" horiz-adv-x="293" 
d="M32 -128l7 36q62 0 87 37.5t25 93.5q0 24 -4 47t-9 38t-7 15l12 49q56 -2 88 -36.5t32 -95.5q0 -20 -2 -31q-10 -77 -56.5 -120.5t-113.5 -43.5v0q-32 0 -59 11zM60 16q-30 28 -30 72t30 72t83 28q32 0 57.5 -20.5t40.5 -46t15 -33.5q0 -44 -30 -72t-83 -28v0
q-53 0 -83 28z" />
    <glyph glyph-name="quotedblbase" unicode="&#x201e;" horiz-adv-x="293" 
d="M32 -128l7 36q62 0 87 37.5t25 93.5q0 24 -4 47t-9 38t-7 15l12 49q56 -2 88 -36.5t32 -95.5q0 -20 -2 -31q-10 -77 -56.5 -120.5t-113.5 -43.5v0v0q-32 0 -59 11zM60 16q-30 28 -30 72t30 72t83 28q32 0 57.5 -20.5t40.5 -46t15 -33.5q0 -44 -30 -72t-83 -28v0v0
q-53 0 -83 28zM32 -128l7 36q62 0 87 37.5t25 93.5q0 24 -4 47t-9 38t-7 15l12 49q56 -2 88 -36.5t32 -95.5q0 -20 -2 -31q-10 -77 -56.5 -120.5t-113.5 -43.5v0v0q-32 0 -59 11zM60 16q-30 28 -30 72t30 72t83 28q32 0 57.5 -20.5t40.5 -46t15 -33.5q0 -44 -30 -72t-83 -28
v0v0q-53 0 -83 28z" />
    <glyph glyph-name="quotedblleft" unicode="&#x201c;" horiz-adv-x="557" 
d="M397 422q-48 7 -76 41t-28 89q0 9 2 31q10 77 56.5 120.5t113.5 43.5q32 0 60 -11l-7 -36q-85 0 -107 -80h3q53 0 83 -28t30 -72t-30 -72t-83 -28v0q-7 0 -17 2zM133 422q-48 7 -75.5 41t-27.5 89q0 9 2 31q10 77 56.5 120.5t113.5 43.5q32 0 59 -11l-7 -36
q-46 0 -71.5 -22t-34.5 -58h2q53 0 83 -28t30 -72t-30 -72t-83 -28v0q-5 0 -17 2z" />
    <glyph glyph-name="quotedblright" unicode="&#x201d;" horiz-adv-x="557" 
d="M32 437l7 36q46 0 71.5 22t34.5 58h-2q-53 0 -83 28t-30 72q0 43 30.5 71.5t82.5 28.5q5 0 17 -2q48 -8 75.5 -41.5t27.5 -88.5q0 -21 -2 -32q-10 -77 -56.5 -120t-113.5 -43v0q-32 0 -59 11zM295 437l7 36q85 0 107 80h-3q-53 0 -83 28t-30 72q0 43 30.5 71.5t82.5 28.5
q7 0 17 -2q48 -8 76 -41.5t28 -88.5q0 -10 -2 -32q-10 -77 -56.5 -120t-113.5 -43v0q-32 0 -60 11z" />
    <glyph glyph-name="quoteleft" unicode="&#x2018;" horiz-adv-x="293" 
d="M133 422q-48 7 -75.5 41t-27.5 89q0 9 2 31q10 77 56.5 120.5t113.5 43.5q32 0 59 -11l-7 -36q-46 0 -71.5 -22t-34.5 -58h2q53 0 83 -28t30 -72t-30 -72t-83 -28v0q-5 0 -17 2z" />
    <glyph glyph-name="quoteright" unicode="&#x2019;" horiz-adv-x="293" 
d="M32 437l7 36q46 0 71.5 22t34.5 58h-2q-53 0 -83 28t-30 72q0 43 30.5 71.5t82.5 28.5q5 0 17 -2q48 -8 75.5 -41.5t27.5 -88.5q0 -21 -2 -32q-10 -77 -56.5 -120t-113.5 -43v0q-32 0 -59 11z" />
    <glyph glyph-name="guillemotleft" unicode="&#xab;" horiz-adv-x="753" 
d="M20 295v110l347 220v-180l-168 -88v-12l168 -90v-180zM367 295v110l346 220v-180l-168 -88v-12l168 -90v-180z" />
    <glyph glyph-name="guillemotright" unicode="&#xbb;" horiz-adv-x="753" 
d="M387 255l168 88v12l-168 90v180l346 -220v-110l-346 -220v180zM40 255l168 88v12l-168 90v180l347 -220v-110l-347 -220v180z" />
    <glyph glyph-name="quotedbl" unicode="&#x22;" horiz-adv-x="557" 
d="M32 437l7 36q46 0 71.5 22t34.5 58h-2q-53 0 -83 28t-30 72q0 43 30.5 71.5t82.5 28.5q5 0 17 -2q48 -8 75.5 -41.5t27.5 -88.5q0 -21 -2 -32q-10 -77 -56.5 -120t-113.5 -43v0q-32 0 -59 11zM295 437l7 36q85 0 107 80h-3q-53 0 -83 28t-30 72q0 43 30.5 71.5t82.5 28.5
q7 0 17 -2q48 -8 76 -41.5t28 -88.5q0 -10 -2 -32q-10 -77 -56.5 -120t-113.5 -43v0q-32 0 -60 11z" />
    <glyph glyph-name="quotesingle" unicode="'" horiz-adv-x="293" 
d="M32 437l7 36q46 0 71.5 22t34.5 58h-2q-53 0 -83 28t-30 72q0 43 30.5 71.5t82.5 28.5q5 0 17 -2q48 -8 75.5 -41.5t27.5 -88.5q0 -21 -2 -32q-10 -77 -56.5 -120t-113.5 -43v0q-32 0 -59 11z" />
    <glyph glyph-name="cent" unicode="&#xa2;" horiz-adv-x="469" 
d="M66.5 196q-36.5 66 -36.5 154t36.5 154t100.5 103v93h220v-56q22 -4 52 -15l-11 -70q-32 6 -61 6q-35 0 -62.5 -26t-43.5 -74.5t-16 -114.5t16 -114.5t43.5 -74.5t62.5 -26q29 0 61 6l11 -70q-24 -10 -53 -15h1v-56h-220v93q-64 37 -100.5 103z" />
    <glyph glyph-name="dollar" unicode="$" horiz-adv-x="589" 
d="M88 22q-44 10 -68 20l32 81q52 -13 91 -13q57 0 84 24.5t27 59.5q0 37 -22 66t-67 70q-35 32 -56 55.5t-35.5 54t-14.5 66.5q0 46 27 93.5t93 74.5v79h220v-58q66 -9 129 -31l-26 -82q-35 12 -67 12q-45 0 -63 -24t-18 -55q0 -36 23 -66.5t70 -73.5q37 -34 59 -58
t37.5 -55.5t15.5 -67.5q0 -50 -36.5 -101.5t-123.5 -75.5v-94h-220v83q-47 6 -91 16z" />
    <glyph glyph-name="Euro" unicode="&#x20ac;" horiz-adv-x="620" 
d="M240 52q-94 64 -128 178h-92l5 100h71q-1 7 -1 20t1 20h-60l5 100h71q34 114 128 178t215 64q76 0 135 -25l-13 -84q-40 7 -74 7q-46 0 -81.5 -36.5t-52.5 -103.5h120l-10 -100h-123q-1 -7 -1 -20t1 -20h93l-10 -100h-70q17 -67 52.5 -103.5t81.5 -36.5q34 0 74 7l13 -84
q-59 -25 -135 -25v0q-121 0 -215 64z" />
    <glyph glyph-name="sterling" unicode="&#xa3;" horiz-adv-x="582" 
d="M20 280l5 100h60v157q0 38 21.5 77.5t77 68.5t151.5 29q46 0 100.5 -9.5t101.5 -23.5l-13 -76q-42 11 -70 11q-36 0 -60.5 -12.5t-36 -30.5t-11.5 -34v-157h103l-5 -100h-98v-180h216l-5 -100h-472v280h-65z" />
    <glyph glyph-name="yen" unicode="&#xa5;" horiz-adv-x="630" 
d="M190 86h-102v100h102v30h-102v100h81l-159 384h270l30 -254h10l30 254h270l-150 -384h72v-100h-92v-30h92v-100h-92v-86h-260v86z" />
    <glyph glyph-name="plus" unicode="+" horiz-adv-x="400" 
d="M150 288h-120v100h120v120h100v-120h120v-100h-120v-120h-100v120z" />
    <glyph glyph-name="equal" unicode="=" horiz-adv-x="390" 
d="M30 478h330v-100h-330v100zM30 298h330v-100h-330v100z" />
    <glyph glyph-name="greater" unicode="&#x3e;" horiz-adv-x="500" 
d="M40 255l261 88v12l-261 90v180l440 -220v-110l-440 -220v180z" />
    <glyph glyph-name="less" unicode="&#x3c;" horiz-adv-x="500" 
d="M20 295v110l440 220v-180l-261 -88v-12l261 -90v-180z" />
    <glyph glyph-name="asciicircum" unicode="^" horiz-adv-x="570" 
d="M220 753h130l190 -383h-180l-68 176h-12l-70 -176h-180z" />
    <glyph glyph-name="percent" unicode="%" horiz-adv-x="1064" 
d="M682 700h220l-519 -700h-220zM77 393.5q-57 48.5 -57 133.5t57 134t147 49t147 -49t57 -134t-57 -133.5t-147 -48.5v0q-90 0 -147 48.5zM244.5 433q8.5 35 8.5 94q0 60 -8.5 95t-20.5 35t-20.5 -35t-8.5 -95q0 -59 8.5 -94t20.5 -35v0q12 0 20.5 35zM693 39
q-57 49 -57 134t57 133.5t147 48.5t147 -48.5t57 -133.5t-57 -134t-147 -49v0q-90 0 -147 49zM860.5 78q8.5 35 8.5 95q0 59 -8.5 94t-20.5 35t-20.5 -35t-8.5 -94q0 -60 8.5 -95t20.5 -35v0q12 0 20.5 35z" />
    <glyph glyph-name="at" unicode="@" horiz-adv-x="738" 
d="M234 28q-63 26 -111 75q-49 48 -75 111q-28 63 -28 136t28 136q26 63 75 111q48 49 111 75q63 28 136 28t136 -28q63 -25 111 -75q50 -48 75 -111q4 -8 7.5 -17.5t5.5 -15.5q13 -43 13 -84q0 -62 -30 -108t-76.5 -69.5t-94.5 -23.5q-39 0 -67 14t-43 35q-26 -43 -85 -43
q-57 0 -89.5 35.5t-32.5 100.5q0 10 2 32q9 78 56.5 123t112.5 45q41 0 59 -20l3 20h97l-16 -138v0l-2 -14q-1 -11 -1 -29q0 -30 11 -44t39 -14q30 0 52 30t22 76q0 36 -15 76v0q-20 48 -59 88q-38 38 -87.5 58.5t-103.5 20.5t-103.5 -20.5t-87.5 -58.5t-58.5 -87.5
t-20.5 -103.5t20.5 -103.5t58.5 -87.5t87.5 -58.5t103.5 -20.5q55 0 108 22l28 -74q-63 -28 -136 -28v0q-73 0 -136 28zM377.5 255.5q10.5 32.5 16.5 86.5q4 33 4 64q0 26 -3.5 40.5t-8.5 14.5q-6 0 -18 -15t-23 -42t-15 -62q-2 -22 -2 -30q0 -26 5.5 -46.5t12.5 -31.5
t12 -11v0q9 0 19.5 32.5z" />
    <glyph glyph-name="ampersand" unicode="&#x26;" horiz-adv-x="711" 
d="M185.5 14.5q-70.5 26.5 -113 78t-42.5 120.5t36.5 119.5t101.5 77.5q-41 22 -63.5 56t-22.5 79q0 52 35.5 89.5t94.5 57.5t127 20q34 0 76.5 -4t66.5 -12v-84h-143q-36 0 -61.5 -25.5t-25.5 -61.5t25.5 -61.5t61.5 -25.5h87v119h221v-119h44v-74h-44v-151
q0 -69 -42.5 -120t-112.5 -78t-153 -27v0q-83 0 -153.5 26.5zM399.5 128q25.5 40 26.5 96v0v140h-87q-36 0 -61.5 -40.5t-25.5 -97.5t25.5 -97.5t61.5 -40.5v0q35 0 60.5 40z" />
    <glyph glyph-name="copyright" unicode="&#xa9;" horiz-adv-x="784" 
d="M251 16q-66 29 -115 78t-78 115q-28 70 -28 141t28 141q29 66 78 115q50 50 115 77q69 29 141 29t141 -29q65 -27 115 -77t77 -115q29 -69 29 -141t-29 -141q-27 -65 -77 -115q-49 -49 -115 -78q-70 -28 -141 -28v0q-71 0 -141 28zM327 172q-46 24 -73 70t-27 108t27 108
t73 70t101 24q21 0 45.5 -4t41.5 -10l-19 -53q-22 10 -41 10q-36 0 -59.5 -39t-23.5 -106t23.5 -106t59.5 -39q19 0 41 9l19 -52q-17 -6 -41.5 -10t-45.5 -4v0q-55 0 -101 24zM502.5 83.5q52.5 21.5 93.5 62.5t62.5 93.5t21.5 110.5t-21.5 110.5t-62.5 93.5t-93.5 62.5
t-110.5 21.5t-110.5 -21.5t-93.5 -62.5t-62.5 -93.5t-21.5 -110.5t21.5 -110.5t62.5 -93.5t93.5 -62.5t110.5 -21.5v0q58 0 110.5 21.5z" />
    <glyph glyph-name="registered" unicode="&#xae;" horiz-adv-x="784" 
d="M251 17q-65 27 -115 77q-49 49 -78 115q-28 70 -28 141t28 141q29 66 78 115t115 78q70 28 141 28t141 -28q66 -29 115 -78q50 -50 77 -115q29 -69 29 -141t-29 -141q-27 -65 -77 -115t-115 -77q-69 -29 -141 -29v0q-72 0 -141 29zM502.5 83.5q52.5 21.5 93.5 62.5
t62.5 93.5t21.5 110.5t-21.5 110.5t-62.5 93.5t-93.5 62.5t-110.5 21.5t-110.5 -21.5t-93.5 -62.5t-62.5 -93.5t-21.5 -110.5t21.5 -110.5t62.5 -93.5t93.5 -62.5t110.5 -21.5v0q58 0 110.5 21.5zM374 267h-6v-117h-147v390q81 10 147 10v0v0q52 0 97 -17t71.5 -49t26.5 -76
q0 -39 -22 -69t-60 -48l100 -141h-153l-54 117v0zM398.5 347.5q11.5 23.5 11.5 60.5t-11.5 61t-22.5 24q-5 0 -6.5 -18.5t-1.5 -66.5q0 -47 1.5 -65.5t6.5 -18.5v0q11 0 22.5 23.5z" />
    <glyph glyph-name="degree" unicode="&#xb0;" horiz-adv-x="488" 
d="M97 433.5q-57 48.5 -57 133.5t57 134t147 49t147 -49t57 -134t-57 -133.5t-147 -48.5v0q-90 0 -147 48.5zM264.5 473q8.5 35 8.5 94q0 60 -8.5 95t-20.5 35t-20.5 -35t-8.5 -95q0 -59 8.5 -94t20.5 -35v0q12 0 20.5 35z" />
    <glyph glyph-name="bar" unicode="|" horiz-adv-x="280" 
d="M30 753h220v-830h-220v830z" />
    <glyph glyph-name="dagger" unicode="&#x2020;" horiz-adv-x="560" 
d="M150 432h-120v100h120v168h260v-168h120v-100h-120v-432h-260v432z" />
    <glyph glyph-name="dieresis" unicode="&#xa8;" horiz-adv-x="510" 
d="M263.5 774.5q-28.5 26.5 -28.5 68.5t28.5 68.5t78.5 26.5t79 -26.5t29 -68.5t-29 -68.5t-79 -26.5v0q-50 0 -78.5 26.5zM28.5 774.5q-28.5 26.5 -28.5 68.5t28.5 68.5t78.5 26.5t79 -26.5t29 -68.5t-29 -68.5t-79 -26.5v0q-50 0 -78.5 26.5z" />
    <glyph glyph-name="grave" unicode="`" horiz-adv-x="294" 
d="M30 936h194l40 -186h-156z" />
    <glyph glyph-name="acute" unicode="&#xb4;" horiz-adv-x="294" 
d="M69 936h195l-78 -186h-156z" />
    <glyph glyph-name="circumflex" unicode="&#x2c6;" horiz-adv-x="484" 
d="M247 850l-36 86h134l109 -186h-175zM139 936h135l-27 -86h-10l-31 -100h-176z" />
    <glyph glyph-name="caron" unicode="&#x2c7;" horiz-adv-x="484" 
d="M237 836h10l32 100h175l-109 -186h-134zM30 936h176l31 -100l37 -86h-135z" />
    <glyph glyph-name="ring" unicode="&#x2da;" horiz-adv-x="430" 
d="M79.5 676q-49.5 43 -49.5 110t49.5 110t135.5 43t135.5 -43t49.5 -110t-49.5 -110t-135.5 -43v0q-86 0 -135.5 43zM278 753q23 13 23 33t-23 33t-63 13t-63.5 -13t-23.5 -33t23.5 -33t63.5 -13v0q40 0 63 13z" />
    <glyph glyph-name="tilde" unicode="&#x2dc;" horiz-adv-x="442" 
d="M251.5 756.5q-19.5 8.5 -43.5 23.5q-33 21 -49 21q-17 0 -26.5 -15t-12.5 -36h-90q0 91 33 139.5t87 48.5q21 0 39.5 -8t44.5 -24q14 -8 26.5 -14.5t21.5 -6.5q17 0 27 15t12 36h91q0 -91 -33 -139.5t-87 -48.5v0q-21 0 -40.5 8.5z" />
    <glyph glyph-name="cedilla" unicode="&#xb8;" horiz-adv-x="305" 
d="M30 -328l28 111q68 8 106 24t38 35q0 17 -30 32t-86 24l19 74q79 -4 124.5 -46t45.5 -107q0 -67 -49.5 -110t-135.5 -43v0q-33 0 -60 6zM105 -28l14 56l88 -28l-19 -50l-19 -51z" />
    </font>
</defs>
</svg>
