<svg xmlns="http://www.w3.org/2000/svg" width="64.518" height="16.43"><defs/><g data-name="Group 2832" style="isolation:isolate"><g data-name="Group 2828"><path fill="#f2cfcf" d="M3.993-35.616a2.021,2.021,0,0,0-.5-.738,1.014,1.014,0,0,0-.657-.29c-.2,0-.443.114-.5.652a14.084,14.084,0,0,0-.048,1.452,13.83,13.83,0,0,0,.048,1.433c.057.538.3.647.5.647a1.007,1.007,0,0,0,.657-.286,2,2,0,0,0,.5-.743,2.641,2.641,0,0,0,.2-1.052A2.744,2.744,0,0,0,3.993-35.616Zm-.528,1.909a1.378,1.378,0,0,1-.348.528.806.806,0,0,1-.2.133c0-.033-.014-.071-.019-.124-.029-.248-.043-.709-.043-1.371s.014-1.143.043-1.39a.618.618,0,0,1,.019-.124.806.806,0,0,1,.2.133,1.378,1.378,0,0,1,.348.528,2.145,2.145,0,0,1,.152.852A2.1,2.1,0,0,1,3.465-33.707Zm.814,3.775A3.317,3.317,0,0,0,3.7-31.117a1.09,1.09,0,0,0-.8-.49c-.481,0-.538.676-.557.933-.038.457-.057,1.252-.057,2.442s.019,2.009.057,2.466c.019.252.076.928.557.928a1.082,1.082,0,0,0,.8-.486,3.317,3.317,0,0,0,.581-1.185A6.214,6.214,0,0,0,4.5-28.232,6.109,6.109,0,0,0,4.279-29.931ZM3.731-26.67a2.808,2.808,0,0,1-.471.981.9.9,0,0,1-.29.257,1.934,1.934,0,0,1-.062-.381c-.033-.433-.052-1.247-.052-2.418s.019-1.961.052-2.395a1.587,1.587,0,0,1,.067-.386,1.028,1.028,0,0,1,.286.257,2.837,2.837,0,0,1,.471.985,5.512,5.512,0,0,1,.2,1.538A5.617,5.617,0,0,1,3.731-26.67Zm.547-3.261A3.317,3.317,0,0,0,3.7-31.117a1.09,1.09,0,0,0-.8-.49c-.481,0-.538.676-.557.933-.038.457-.057,1.252-.057,2.442s.019,2.009.057,2.466c.019.252.076.928.557.928a1.082,1.082,0,0,0,.8-.486,3.317,3.317,0,0,0,.581-1.185A6.214,6.214,0,0,0,4.5-28.232,6.109,6.109,0,0,0,4.279-29.931ZM3.731-26.67a2.808,2.808,0,0,1-.471.981.9.9,0,0,1-.29.257,1.934,1.934,0,0,1-.062-.381c-.033-.433-.052-1.247-.052-2.418s.019-1.961.052-2.395a1.587,1.587,0,0,1,.067-.386,1.028,1.028,0,0,1,.286.257,2.837,2.837,0,0,1,.471.985,5.512,5.512,0,0,1,.2,1.538A5.617,5.617,0,0,1,3.731-26.67Zm.262-8.946a2.021,2.021,0,0,0-.5-.738,1.014,1.014,0,0,0-.657-.29c-.2,0-.443.114-.5.652a14.084,14.084,0,0,0-.048,1.452,13.83,13.83,0,0,0,.048,1.433c.057.538.3.647.5.647a1.007,1.007,0,0,0,.657-.286,2,2,0,0,0,.5-.743,2.641,2.641,0,0,0,.2-1.052A2.744,2.744,0,0,0,3.993-35.616Zm-.528,1.909a1.378,1.378,0,0,1-.348.528.806.806,0,0,1-.2.133c0-.033-.014-.071-.019-.124-.029-.248-.043-.709-.043-1.371s.014-1.143.043-1.39a.618.618,0,0,1,.019-.124.806.806,0,0,1,.2.133,1.378,1.378,0,0,1,.348.528,2.145,2.145,0,0,1,.152.852A2.1,2.1,0,0,1,3.465-33.707Zm.528-1.909a2.021,2.021,0,0,0-.5-.738,1.014,1.014,0,0,0-.657-.29c-.2,0-.443.114-.5.652a14.084,14.084,0,0,0-.048,1.452,13.83,13.83,0,0,0,.048,1.433c.057.538.3.647.5.647a1.007,1.007,0,0,0,.657-.286,2,2,0,0,0,.5-.743,2.641,2.641,0,0,0,.2-1.052A2.744,2.744,0,0,0,3.993-35.616Zm-.528,1.909a1.378,1.378,0,0,1-.348.528.806.806,0,0,1-.2.133c0-.033-.014-.071-.019-.124-.029-.248-.043-.709-.043-1.371s.014-1.143.043-1.39a.618.618,0,0,1,.019-.124.806.806,0,0,1,.2.133,1.378,1.378,0,0,1,.348.528,2.145,2.145,0,0,1,.152.852A2.1,2.1,0,0,1,3.465-33.707Zm.814,3.775A3.317,3.317,0,0,0,3.7-31.117a1.09,1.09,0,0,0-.8-.49c-.481,0-.538.676-.557.933-.038.457-.057,1.252-.057,2.442s.019,2.009.057,2.466c.019.252.076.928.557.928a1.082,1.082,0,0,0,.8-.486,3.317,3.317,0,0,0,.581-1.185A6.214,6.214,0,0,0,4.5-28.232,6.109,6.109,0,0,0,4.279-29.931ZM3.731-26.67a2.808,2.808,0,0,1-.471.981.9.9,0,0,1-.29.257,1.934,1.934,0,0,1-.062-.381c-.033-.433-.052-1.247-.052-2.418s.019-1.961.052-2.395a1.587,1.587,0,0,1,.067-.386,1.028,1.028,0,0,1,.286.257,2.837,2.837,0,0,1,.471.985,5.512,5.512,0,0,1,.2,1.538A5.617,5.617,0,0,1,3.731-26.67Zm.547-3.261A3.317,3.317,0,0,0,3.7-31.117a1.09,1.09,0,0,0-.8-.49c-.481,0-.538.676-.557.933-.038.457-.057,1.252-.057,2.442s.019,2.009.057,2.466c.019.252.076.928.557.928a1.082,1.082,0,0,0,.8-.486,3.317,3.317,0,0,0,.581-1.185A6.214,6.214,0,0,0,4.5-28.232,6.109,6.109,0,0,0,4.279-29.931ZM3.731-26.67a2.808,2.808,0,0,1-.471.981.9.9,0,0,1-.29.257,1.934,1.934,0,0,1-.062-.381c-.033-.433-.052-1.247-.052-2.418s.019-1.961.052-2.395a1.587,1.587,0,0,1,.067-.386,1.028,1.028,0,0,1,.286.257,2.837,2.837,0,0,1,.471.985,5.512,5.512,0,0,1,.2,1.538A5.617,5.617,0,0,1,3.731-26.67Zm-.9-5.789a1.007,1.007,0,0,0,.657-.286,2,2,0,0,0,.5-.743,2.641,2.641,0,0,0,.2-1.052,2.744,2.744,0,0,0-.2-1.076,2.021,2.021,0,0,0-.5-.738,1.014,1.014,0,0,0-.657-.29c-.2,0-.443.114-.5.652a14.084,14.084,0,0,0-.048,1.452,13.83,13.83,0,0,0,.048,1.433C2.389-32.569,2.636-32.459,2.831-32.459ZM2.9-35.93a.618.618,0,0,1,.019-.124.806.806,0,0,1,.2.133,1.378,1.378,0,0,1,.348.528,2.145,2.145,0,0,1,.152.852,2.1,2.1,0,0,1-.152.833,1.378,1.378,0,0,1-.348.528.806.806,0,0,1-.2.133c0-.033-.014-.071-.019-.124-.029-.248-.043-.709-.043-1.371S2.869-35.682,2.9-35.93Zm6.551,5.294a5.641,5.641,0,0,0-2.042-1.543,3.942,3.942,0,0,0,1.138-1,2.979,2.979,0,0,0,.619-1.847,2.769,2.769,0,0,0-.971-2.1,6.061,6.061,0,0,0-2.433-1.281,11.658,11.658,0,0,0-3.19-.428,48.963,48.963,0,0,0-5.727.376l-.252.029v15.4l.252.029a48.9,48.9,0,0,0,5.727.376,12.023,12.023,0,0,0,3.847-.6A6.752,6.752,0,0,0,9.292-25a4.06,4.06,0,0,0,1.119-2.833A4.325,4.325,0,0,0,9.449-30.636Zm-.576,5.242a6.184,6.184,0,0,1-2.637,1.633,11.448,11.448,0,0,1-3.666.567,47.094,47.094,0,0,1-5.408-.343V-37.92a47.224,47.224,0,0,1,5.408-.343,11.09,11.09,0,0,1,3.033.4,5.469,5.469,0,0,1,2.2,1.157,2.183,2.183,0,0,1,.786,1.681,2.415,2.415,0,0,1-.5,1.5,3.726,3.726,0,0,1-1.481,1.1l-.638.286.657.243a5.412,5.412,0,0,1,2.376,1.609,3.764,3.764,0,0,1,.833,2.438A3.435,3.435,0,0,1,8.873-25.394ZM3.7-31.117a1.09,1.09,0,0,0-.8-.49c-.481,0-.538.676-.557.933-.038.457-.057,1.252-.057,2.442s.019,2.009.057,2.466c.019.252.076.928.557.928a1.082,1.082,0,0,0,.8-.486,3.317,3.317,0,0,0,.581-1.185A6.214,6.214,0,0,0,4.5-28.232a6.109,6.109,0,0,0-.219-1.7A3.317,3.317,0,0,0,3.7-31.117Zm.033,4.447a2.808,2.808,0,0,1-.471.981.9.9,0,0,1-.29.257,1.934,1.934,0,0,1-.062-.381c-.033-.433-.052-1.247-.052-2.418s.019-1.961.052-2.395a1.587,1.587,0,0,1,.067-.386,1.028,1.028,0,0,1,.286.257,2.837,2.837,0,0,1,.471.985,5.512,5.512,0,0,1,.2,1.538A5.617,5.617,0,0,1,3.731-26.67Zm-.9-5.789a1.007,1.007,0,0,0,.657-.286,2,2,0,0,0,.5-.743,2.641,2.641,0,0,0,.2-1.052,2.744,2.744,0,0,0-.2-1.076,2.021,2.021,0,0,0-.5-.738,1.014,1.014,0,0,0-.657-.29c-.2,0-.443.114-.5.652a14.084,14.084,0,0,0-.048,1.452,13.83,13.83,0,0,0,.048,1.433C2.389-32.569,2.636-32.459,2.831-32.459ZM2.9-35.93a.618.618,0,0,1,.019-.124.806.806,0,0,1,.2.133,1.378,1.378,0,0,1,.348.528,2.145,2.145,0,0,1,.152.852,2.1,2.1,0,0,1-.152.833,1.378,1.378,0,0,1-.348.528.806.806,0,0,1-.2.133c0-.033-.014-.071-.019-.124-.029-.248-.043-.709-.043-1.371S2.869-35.682,2.9-35.93Zm1.095.314a2.021,2.021,0,0,0-.5-.738,1.014,1.014,0,0,0-.657-.29c-.2,0-.443.114-.5.652a14.084,14.084,0,0,0-.048,1.452,13.83,13.83,0,0,0,.048,1.433c.057.538.3.647.5.647a1.007,1.007,0,0,0,.657-.286,2,2,0,0,0,.5-.743,2.641,2.641,0,0,0,.2-1.052A2.744,2.744,0,0,0,3.993-35.616Zm-.528,1.909a1.378,1.378,0,0,1-.348.528.806.806,0,0,1-.2.133c0-.033-.014-.071-.019-.124-.029-.248-.043-.709-.043-1.371s.014-1.143.043-1.39a.618.618,0,0,1,.019-.124.806.806,0,0,1,.2.133,1.378,1.378,0,0,1,.348.528,2.145,2.145,0,0,1,.152.852A2.1,2.1,0,0,1,3.465-33.707Zm.814,3.775A3.317,3.317,0,0,0,3.7-31.117a1.09,1.09,0,0,0-.8-.49c-.481,0-.538.676-.557.933-.038.457-.057,1.252-.057,2.442s.019,2.009.057,2.466c.019.252.076.928.557.928a1.082,1.082,0,0,0,.8-.486,3.317,3.317,0,0,0,.581-1.185A6.214,6.214,0,0,0,4.5-28.232,6.109,6.109,0,0,0,4.279-29.931ZM3.731-26.67a2.808,2.808,0,0,1-.471.981.9.9,0,0,1-.29.257,1.934,1.934,0,0,1-.062-.381c-.033-.433-.052-1.247-.052-2.418s.019-1.961.052-2.395a1.587,1.587,0,0,1,.067-.386,1.028,1.028,0,0,1,.286.257,2.837,2.837,0,0,1,.471.985,5.512,5.512,0,0,1,.2,1.538A5.617,5.617,0,0,1,3.731-26.67Zm.547-3.261A3.317,3.317,0,0,0,3.7-31.117a1.09,1.09,0,0,0-.8-.49c-.481,0-.538.676-.557.933-.038.457-.057,1.252-.057,2.442s.019,2.009.057,2.466c.019.252.076.928.557.928a1.082,1.082,0,0,0,.8-.486,3.317,3.317,0,0,0,.581-1.185A6.214,6.214,0,0,0,4.5-28.232,6.109,6.109,0,0,0,4.279-29.931ZM3.731-26.67a2.808,2.808,0,0,1-.471.981.9.9,0,0,1-.29.257,1.934,1.934,0,0,1-.062-.381c-.033-.433-.052-1.247-.052-2.418s.019-1.961.052-2.395a1.587,1.587,0,0,1,.067-.386,1.028,1.028,0,0,1,.286.257,2.837,2.837,0,0,1,.471.985,5.512,5.512,0,0,1,.2,1.538A5.617,5.617,0,0,1,3.731-26.67Zm.262-8.946a2.021,2.021,0,0,0-.5-.738,1.014,1.014,0,0,0-.657-.29c-.2,0-.443.114-.5.652a14.084,14.084,0,0,0-.048,1.452,13.83,13.83,0,0,0,.048,1.433c.057.538.3.647.5.647a1.007,1.007,0,0,0,.657-.286,2,2,0,0,0,.5-.743,2.641,2.641,0,0,0,.2-1.052A2.744,2.744,0,0,0,3.993-35.616Zm-.528,1.909a1.378,1.378,0,0,1-.348.528.806.806,0,0,1-.2.133c0-.033-.014-.071-.019-.124-.029-.248-.043-.709-.043-1.371s.014-1.143.043-1.39a.618.618,0,0,1,.019-.124.806.806,0,0,1,.2.133,1.378,1.378,0,0,1,.348.528,2.145,2.145,0,0,1,.152.852A2.1,2.1,0,0,1,3.465-33.707Z" data-name="Path 1449" transform="translate(3.41 39.064) translate(-3.41 -39.064) translate(0 0.109) translate(3.41 38.834)"/></g><g data-name="Group 2829"><path fill="#f2cfcf" d="M37.417-33.886h-.743l-.467,5.651h1.671Zm-.586,5.08.214-2.633.214,2.633Zm.586-5.08h-.743l-.467,5.651h1.671Zm-.586,5.08.214-2.633.214,2.633Zm.586-5.08h-.743l-.467,5.651h1.671Zm-.586,5.08.214-2.633.214,2.633Zm.586-5.08h-.743l-.467,5.651h1.671Zm-.586,5.08.214-2.633.214,2.633Zm3.837-9.7H33.4L29.79-22.6h6.532l.3-3.656h.833l.309,3.656H44.3Zm-2.68,11.669H36.1l-.3,3.661H30.5l3.352-14.758h6.356l3.375,14.758H38.293Zm-1.314-7.051-.467,5.651h1.671l-.462-5.651Zm.157,5.08.214-2.633.214,2.633Zm.586-5.08h-.743l-.467,5.651h1.671Zm-.586,5.08.214-2.633.214,2.633Zm.586-5.08h-.743l-.467,5.651h1.671Zm-.586,5.08.214-2.633.214,2.633Z" data-name="Path 1450" transform="translate(3.41 39.064) translate(-3.41 -39.064) translate(15.806 0.267) translate(-29.79 38.504)"/></g><g data-name="Group 2830"><path fill="#f2cfcf" d="M73.569-38.5l.11,6.889L71.822-38.5H66.28v15.9h6.27l-.1-5.946L74.3-22.6h5.537V-38.5Zm5.7,15.33H74.726l-2.066-6.637H72.15l-.286,0v.019l.1,6.613H66.851V-37.933h4.532l2.095,7.765h.8v-.014l-.124-7.751h5.118Z" data-name="Path 1451" transform="translate(3.41 39.064) translate(-3.41 -39.064) translate(33.178 0.267) translate(-66.28 38.504)"/></g><g data-name="Group 2831"><path fill="#f2cfcf" d="M108.8-33.151v2.761h1.185v4.642a3.445,3.445,0,0,1-1.228-1.533,8.478,8.478,0,0,1-.652-3.566,9.576,9.576,0,0,1,.409-2.956,4.381,4.381,0,0,1,1.085-1.852,2.074,2.074,0,0,1,1.457-.6,9.025,9.025,0,0,1,1.571.148l.29.048.362-2.347-.2-.086a7.875,7.875,0,0,0-3.066-.571,8.671,8.671,0,0,0-4.075.976,7.573,7.573,0,0,0-2.985,2.842,8.469,8.469,0,0,0-1.109,4.4,8.451,8.451,0,0,0,1.109,4.394,7.508,7.508,0,0,0,2.985,2.842,8.67,8.67,0,0,0,4.075.976,8.593,8.593,0,0,0,3.8-.786,6.023,6.023,0,0,0,2.385-1.947l.052-.071v-7.713Zm6.879,7.536a5.571,5.571,0,0,1-2.119,1.681,7.941,7.941,0,0,1-3.552.728,8.076,8.076,0,0,1-3.809-.909h0a6.9,6.9,0,0,1-2.752-2.633,7.871,7.871,0,0,1-1.033-4.1,7.888,7.888,0,0,1,1.033-4.1,6.9,6.9,0,0,1,2.752-2.633,8.166,8.166,0,0,1,3.813-.909,7.509,7.509,0,0,1,2.637.443l-.2,1.333a9.707,9.707,0,0,0-1.385-.11,2.67,2.67,0,0,0-1.847.752,4.971,4.971,0,0,0-1.238,2.09,10.167,10.167,0,0,0-.438,3.137,9.01,9.01,0,0,0,.7,3.809,3.631,3.631,0,0,0,1.933,2.019l.386.148v-6.089h-1.185V-32.58h6.308Z" data-name="Path 1452" transform="translate(3.41 39.064) translate(-3.41 -39.064) translate(50.107) translate(-101.84 39.064)"/></g></g></svg>