<?xml version="1.0" encoding="utf-8"?>
<!-- Generator: Adobe Illustrator 24.0.1, SVG Export Plug-In . SVG Version: 6.00 Build 0)  -->
<svg version="1.1" id="Layer_1" xmlns="http://www.w3.org/2000/svg" xmlns:xlink="http://www.w3.org/1999/xlink" x="0px" y="0px"
	 viewBox="0 0 64 64" style="enable-background:new 0 0 64 64;" xml:space="preserve">
<style type="text/css">
	.st0{fill:#F2CFCF;}
</style>
<g id="heart-lock" transform="translate(-51.704)">
	<path id="Path_1459" class="st0" d="M109.2,35.4c-0.2-4.1-2.2-8-5.5-10.5V20c0-11.1-9-20-20-20c-11,0-20,9-20,20v4.8
		c-3.3,2.5-5.3,6.4-5.5,10.5c-0.2,3.6,0.8,7.1,2.9,10C63.3,48.7,71,55.9,77,61.4c1.8,1.7,4.2,2.6,6.7,2.6l0,0c2.5,0,4.9-0.9,6.7-2.6
		c6-5.5,13.7-12.7,15.9-16.1C108.4,42.4,109.4,38.9,109.2,35.4L109.2,35.4z M66.2,20C66.4,10.3,74.4,2.6,84,2.8
		c9.4,0.2,17,7.8,17.2,17.2v3.3c-1.1-0.5-2.3-0.9-3.5-1.1V20c0-7.7-6.3-14-14-14s-14,6.3-14,14v2.2c-1.2,0.2-2.4,0.6-3.5,1.1
		C66.2,23.3,66.2,20,66.2,20z M95.2,22c-5.3,0.1-9.7,3.3-11.5,4.8c-1.8-1.6-6-4.7-11.5-4.8v-2c0.1-6.4,5.3-11.5,11.6-11.4
		c6.3,0.1,11.4,5.1,11.4,11.4V22z M104.2,44c-1.6,2.4-7.1,8-15.5,15.6c-2.8,2.6-7.2,2.6-10,0C70.3,51.9,64.8,46.4,63.2,44
		c-1.8-2.5-2.7-5.5-2.5-8.5c0.3-6,5.2-10.8,11.3-11c6.2,0,10.8,4.8,10.8,4.9c0.2,0.3,0.6,0.4,0.9,0.4c0.3,0,0.7-0.1,0.9-0.4
		c0,0,4.9-4.9,10.9-4.9c6.1,0.2,11,5,11.3,11C106.9,38.5,106,41.5,104.2,44L104.2,44z"/>
	<path id="Path_1460" class="st0" d="M90.9,40.2c0-4-3.2-7.2-7.2-7.2c-4,0-7.2,3.2-7.2,7.2c0,2.2,1,4.2,2.6,5.6l-1.2,5.7
		c-0.1,0.7,0.3,1.3,1,1.5c0.1,0,0.2,0,0.3,0h9.3c0.7,0,1.2-0.6,1.3-1.2c0-0.1,0-0.2,0-0.3l-1.2-5.7C90,44.4,91,42.3,90.9,40.2z
		 M86.3,44.2c-0.4,0.3-0.7,0.8-0.5,1.3l1.1,4.9h-6.2l1.1-4.9c0.1-0.5-0.1-1-0.5-1.3c-2.2-1.4-2.9-4.3-1.4-6.5
		c1.4-2.2,4.3-2.9,6.5-1.4c2.2,1.4,2.9,4.3,1.4,6.5C87.3,43.3,86.8,43.8,86.3,44.2L86.3,44.2z"/>
</g>
</svg>
