<?xml version="1.0" standalone="no"?>
<!DOCTYPE svg PUBLIC "-//W3C//DTD SVG 20010904//EN"
 "http://www.w3.org/TR/2001/REC-SVG-20010904/DTD/svg10.dtd">
<svg version="1.0" xmlns="http://www.w3.org/2000/svg"
 width="700.000000pt" height="700.000000pt" viewBox="0 0 700.000000 700.000000"
 preserveAspectRatio="xMidYMid meet">
<metadata>
Created by potrace 1.11, written by Peter Selinger 2001-2013
</metadata>
<g transform="translate(0.000000,700.000000) scale(0.100000,-0.100000)"
fill="#000000" stroke="none">
<path d="M3339 6996 c-2 -2 -40 -6 -83 -10 -44 -4 -82 -9 -86 -11 -3 -2 -30
-6 -60 -10 -29 -3 -56 -8 -60 -10 -4 -2 -20 -7 -37 -9 -112 -20 -331 -99 -480
-174 -117 -58 -302 -170 -333 -202 -3 -3 -39 -32 -80 -65 -317 -252 -582 -641
-705 -1035 -84 -267 -101 -413 -104 -860 l-2 -325 -37 -29 c-68 -54 -217 -212
-274 -292 -120 -168 -219 -401 -264 -619 -14 -69 -18 -137 -19 -290 0 -200 3
-237 30 -372 15 -72 58 -220 75 -258 5 -11 25 -55 45 -98 130 -288 345 -549
916 -1114 195 -192 205 -201 573 -546 22 -22 88 -82 145 -135 58 -54 125 -116
150 -140 258 -244 421 -335 672 -377 81 -14 345 -15 366 -2 5 3 23 9 39 12
171 31 375 136 509 261 83 77 255 237 289 268 56 51 257 239 355 331 172 161
755 747 846 850 157 178 294 366 370 509 73 136 154 372 170 496 3 19 8 46 11
60 4 14 8 108 9 210 2 149 -1 207 -17 300 -65 374 -268 720 -557 947 l-23 19
-3 364 c-2 201 -6 379 -8 395 -3 17 -8 53 -11 80 -42 339 -195 709 -413 1004
-93 125 -288 327 -393 406 -36 27 -67 52 -70 55 -12 12 -101 71 -182 118 -242
142 -509 237 -788 278 -91 14 -470 29 -481 20z m321 -310 c84 -7 122 -12 195
-27 28 -6 63 -13 78 -16 28 -4 195 -58 275 -87 62 -23 216 -102 291 -149 340
-212 604 -518 759 -880 38 -89 96 -264 107 -325 2 -14 9 -48 14 -76 26 -131
34 -225 35 -463 1 -140 -2 -197 -11 -200 -6 -2 -24 2 -40 10 -38 20 -205 73
-275 88 l-58 12 0 166 c-1 195 -5 244 -30 372 -114 567 -535 1020 -1095 1177
-38 11 -86 23 -105 26 -19 3 -46 8 -59 11 -45 9 -167 18 -241 18 -289 1 -593
-89 -835 -248 -106 -70 -269 -216 -356 -321 -119 -141 -237 -374 -288 -564
-38 -144 -49 -237 -50 -450 -1 -101 -3 -185 -4 -186 -1 -2 -14 -5 -27 -7 -99
-19 -256 -69 -321 -102 -21 -11 -28 -12 -31 -2 -12 35 2 519 17 577 2 8 6 36
10 62 25 201 148 517 280 718 58 88 46 73 139 185 328 397 817 651 1314 681
59 4 108 7 109 8 3 3 118 -2 203 -8z m20 -640 c14 -3 50 -11 81 -16 176 -32
386 -133 539 -258 58 -48 200 -192 200 -204 0 -4 6 -13 13 -20 67 -69 186
-321 211 -448 2 -14 10 -50 16 -80 6 -30 13 -139 15 -241 l4 -186 -59 -2 c-33
-1 -67 -3 -77 -5 -10 -2 -40 -7 -66 -10 -101 -15 -139 -24 -250 -57 -257 -78
-572 -252 -791 -435 -17 -14 -20 -14 -44 8 -15 13 -29 25 -32 28 -19 20 -178
133 -258 183 -250 157 -571 266 -831 283 -47 3 -92 7 -99 9 -9 4 -11 45 -8
182 3 98 7 189 10 203 3 14 10 49 16 79 14 76 65 221 106 302 79 158 164 268
304 392 82 73 71 65 179 130 141 86 325 150 466 164 33 3 62 7 64 9 6 6 262
-3 291 -10z m-1260 -1741 c14 -3 52 -10 84 -16 267 -48 626 -241 846 -455 77
-74 111 -94 158 -94 36 1 57 14 139 88 263 236 582 401 898 465 535 109 1100
-176 1350 -681 65 -132 97 -236 123 -403 9 -61 8 -260 -2 -321 -3 -21 -9 -55
-12 -75 -11 -72 -52 -218 -84 -298 -85 -216 -203 -385 -475 -684 -92 -102
-602 -610 -769 -766 -82 -77 -160 -151 -175 -165 -14 -14 -84 -79 -156 -145
-71 -66 -135 -124 -141 -130 -223 -208 -316 -273 -459 -318 -80 -26 -104 -29
-230 -33 -164 -4 -292 28 -430 109 -45 26 -144 105 -185 147 -8 8 -73 69 -145
135 -71 66 -137 127 -146 135 -8 8 -76 71 -149 140 -326 306 -772 746 -915
904 -44 49 -89 98 -100 110 -42 43 -165 200 -211 269 -128 190 -214 415 -242
632 -9 67 -8 297 1 364 12 90 47 219 83 308 31 77 84 181 105 207 5 6 30 40
56 76 91 126 256 270 388 342 150 81 326 141 455 155 30 3 57 8 60 10 6 6 243
-4 280 -12z"/>
<path d="M3335 3375 c-304 -67 -533 -296 -606 -605 -19 -81 -16 -270 6 -355
34 -136 129 -299 227 -393 l35 -33 -18 -82 c-68 -301 -112 -529 -111 -569 0
-31 8 -56 22 -76 45 -61 41 -61 635 -59 l540 2 34 24 c40 28 71 92 66 135 -2
17 -13 76 -25 131 -12 55 -23 109 -26 120 -2 11 -8 40 -14 65 -5 25 -12 56
-14 70 -3 14 -14 69 -25 124 -12 54 -21 103 -21 110 0 6 14 27 31 46 104 117
185 286 207 430 13 86 5 261 -17 342 -24 91 -76 201 -134 278 -92 125 -270
245 -423 285 -88 23 -286 28 -369 10z m288 -270 c84 -18 198 -84 265 -153 41
-42 93 -123 115 -179 36 -92 39 -227 8 -320 -31 -93 -65 -140 -167 -233 -52
-47 -101 -100 -110 -119 -15 -32 -15 -39 1 -105 9 -39 19 -82 22 -96 2 -14 10
-50 18 -80 8 -30 16 -67 19 -83 3 -15 7 -35 10 -45 3 -9 7 -28 10 -42 6 -35
26 -122 32 -142 5 -17 -16 -18 -336 -18 -321 0 -341 1 -336 18 3 9 17 69 31
132 15 63 28 124 31 135 3 11 7 31 10 45 3 13 14 63 25 110 36 151 26 189 -67
261 -210 162 -266 437 -135 659 120 202 335 301 554 255z"/>
</g>
</svg>
